<svg xmlns="http://www.w3.org/2000/svg" xmlns:xlink="http://www.w3.org/1999/xlink" width="453" zoomAndPan="magnify" viewBox="0 0 340.5 141.749996" height="188" preserveAspectRatio="xMidYMid meet" version="1.0"><defs><g/><clipPath id="a5067d76e6"><path d="M 0.0507812 0 L 339.949219 0 L 339.949219 141.5 L 0.0507812 141.5 Z M 0.0507812 0 " clip-rule="nonzero"/></clipPath><clipPath id="fb86401034"><path d="M 14.21875 41.746094 L 114.691406 41.746094 L 114.691406 100.230469 L 14.21875 100.230469 Z M 14.21875 41.746094 " clip-rule="nonzero"/></clipPath></defs><g clip-path="url(#a5067d76e6)"><path fill="#ffffff" d="M 0.0507812 0 L 340.449219 0 L 340.449219 149.207031 L 0.0507812 149.207031 Z M 0.0507812 0 " fill-opacity="1" fill-rule="nonzero"/><path fill="#ffffff" d="M 0.0507812 0 L 340.449219 0 L 340.449219 141.707031 L 0.0507812 141.707031 Z M 0.0507812 0 " fill-opacity="1" fill-rule="nonzero"/><path fill="#000000" d="M 0.0507812 0 L 340.449219 0 L 340.449219 141.707031 L 0.0507812 141.707031 Z M 0.0507812 0 " fill-opacity="1" fill-rule="nonzero"/></g><path fill="#fbb03b" d="M 55.675781 60.734375 C 55.394531 60.585938 55.0625 60.640625 54.816406 60.828125 C 54.5625 61.019531 54.410156 61.296875 54.359375 61.613281 C 54.296875 61.984375 54.339844 62.371094 54.351562 62.746094 C 54.359375 62.953125 54.363281 63.15625 54.371094 63.359375 C 54.378906 63.5625 54.375 63.804688 54.527344 63.957031 C 54.554688 63.980469 54.589844 63.992188 54.625 63.992188 C 54.917969 64.304688 55.425781 64.363281 55.792969 64.089844 C 56.324219 63.695312 56.277344 62.984375 56.230469 62.398438 C 56.191406 61.851562 56.246094 61.03125 55.675781 60.734375 Z M 55.609375 63.410156 C 55.542969 63.578125 55.417969 63.691406 55.253906 63.710938 C 55.109375 63.730469 54.960938 63.714844 54.835938 63.652344 C 54.855469 63.484375 54.835938 63.292969 54.832031 63.136719 C 54.824219 62.851562 54.816406 62.5625 54.8125 62.273438 C 54.804688 61.917969 54.796875 61.300781 55.265625 61.226562 C 55.621094 61.171875 55.613281 61.769531 55.628906 62.019531 C 55.648438 62.285156 55.675781 62.550781 55.679688 62.816406 C 55.6875 63.015625 55.683594 63.222656 55.609375 63.410156 Z M 55.609375 63.410156 " fill-opacity="1" fill-rule="nonzero"/><path fill="#fbb03b" d="M 44.464844 68.121094 C 45.515625 68.675781 46.679688 69.023438 47.824219 69.324219 C 49.074219 69.652344 50.351562 69.886719 51.636719 70.039062 C 54.085938 70.332031 56.566406 70.304688 59.019531 70.09375 C 61.203125 69.910156 63.457031 69.535156 65.402344 68.472656 C 65.867188 68.21875 66.296875 67.921875 66.695312 67.570312 C 66.867188 67.417969 66.644531 67.125 66.449219 67.25 C 65.578125 67.816406 64.660156 68.289062 63.675781 68.625 C 62.671875 68.96875 61.636719 69.199219 60.589844 69.351562 C 58.429688 69.664062 56.191406 69.742188 54.007812 69.648438 C 51.5 69.542969 49.003906 69.132812 46.613281 68.355469 C 44.886719 67.792969 42.75 66.820312 42.28125 64.863281 C 41.929688 63.398438 42.726562 62.074219 43.824219 61.175781 C 45 60.207031 46.476562 59.621094 47.914062 59.175781 C 49.609375 58.652344 51.371094 58.363281 53.132812 58.195312 C 55.425781 57.972656 57.761719 57.984375 60.046875 58.3125 C 61.179688 58.476562 62.304688 58.710938 63.398438 59.042969 C 64.449219 59.359375 65.5 59.738281 66.449219 60.292969 C 67.363281 60.824219 68.203125 61.574219 68.636719 62.5625 C 69.09375 63.609375 68.984375 64.710938 68.363281 65.664062 C 68.070312 66.113281 67.714844 66.511719 67.332031 66.890625 C 67.175781 67.050781 67.414062 67.285156 67.578125 67.136719 C 68.40625 66.375 69.238281 65.519531 69.410156 64.355469 C 69.566406 63.261719 69.175781 62.152344 68.523438 61.285156 C 67.832031 60.371094 66.808594 59.742188 65.785156 59.277344 C 64.710938 58.789062 63.582031 58.425781 62.4375 58.148438 C 60.058594 57.570312 57.589844 57.375 55.148438 57.449219 C 53.03125 57.519531 50.886719 57.757812 48.824219 58.257812 C 47.265625 58.640625 45.703125 59.1875 44.328125 60.039062 C 43.042969 60.835938 41.84375 62.003906 41.621094 63.574219 C 41.492188 64.496094 41.691406 65.429688 42.210938 66.207031 C 42.769531 67.035156 43.59375 67.660156 44.464844 68.121094 Z M 44.464844 68.121094 " fill-opacity="1" fill-rule="nonzero"/><path fill="#fbb03b" d="M 46.253906 70.96875 C 49.003906 71.777344 51.894531 72.238281 54.757812 72.359375 C 57.699219 72.484375 60.722656 72.238281 63.542969 71.363281 C 66.136719 70.554688 68.628906 69.21875 70.644531 67.382812 C 71.125 66.941406 71.558594 66.460938 71.921875 65.917969 C 71.972656 65.847656 71.972656 65.773438 71.945312 65.707031 C 72.3125 65.21875 72.601562 64.683594 72.714844 64.074219 C 72.839844 63.410156 72.71875 62.773438 72.449219 62.160156 C 71.929688 60.972656 70.828125 60.042969 69.816406 59.285156 C 67.714844 57.714844 65.203125 56.769531 62.660156 56.203125 C 60.046875 55.621094 57.355469 55.402344 54.679688 55.46875 C 52 55.53125 49.320312 55.972656 46.785156 56.855469 C 45.5 57.300781 44.253906 57.863281 43.074219 58.539062 C 41.96875 59.171875 40.867188 59.878906 40.027344 60.855469 C 39.257812 61.753906 38.703125 62.863281 38.691406 64.066406 C 38.679688 65.328125 39.28125 66.453125 40.070312 67.394531 C 41.636719 69.261719 43.972656 70.296875 46.253906 70.96875 Z M 39.671875 62.636719 C 40.125 61.585938 40.96875 60.726562 41.890625 60.082031 C 42.941406 59.347656 44.070312 58.722656 45.238281 58.195312 C 49.894531 56.101562 55.191406 55.695312 60.203125 56.398438 C 62.6875 56.742188 65.175781 57.371094 67.417969 58.523438 C 68.511719 59.089844 69.550781 59.773438 70.464844 60.605469 C 71.367188 61.421875 72.480469 62.523438 72.324219 63.851562 C 72.253906 64.4375 71.984375 64.996094 71.675781 65.5 C 71.613281 65.5 71.550781 65.523438 71.5 65.585938 C 69.886719 67.582031 67.601562 69.054688 65.273438 70.0625 C 62.703125 71.171875 59.910156 71.652344 57.128906 71.746094 C 54.292969 71.839844 51.449219 71.539062 48.679688 70.933594 C 46.394531 70.429688 44.058594 69.757812 42.121094 68.390625 C 41.191406 67.734375 40.359375 66.886719 39.816406 65.875 C 39.273438 64.859375 39.210938 63.691406 39.671875 62.636719 Z M 39.671875 62.636719 " fill-opacity="1" fill-rule="nonzero"/><g clip-path="url(#fb86401034)"><path fill="#fbb03b" d="M 114.523438 73.972656 C 114.507812 73.578125 114.476562 73.1875 114.417969 72.800781 C 114.40625 72.710938 114.394531 72.613281 114.378906 72.519531 C 114.640625 72.085938 114.402344 71.589844 114.09375 71.238281 C 113.136719 70.140625 112 69.164062 110.953125 68.152344 C 109.886719 67.121094 108.8125 66.097656 107.730469 65.082031 C 105.589844 63.066406 103.421875 61.078125 101.230469 59.113281 C 99.039062 57.152344 96.824219 55.21875 94.585938 53.308594 C 93.507812 52.386719 92.421875 51.480469 91.339844 50.5625 C 90.546875 49.882812 89.734375 49.179688 88.78125 48.734375 C 87.832031 48.289062 86.820312 48.144531 85.78125 48.214844 C 85.769531 48 85.761719 47.785156 85.75 47.570312 C 85.964844 47.269531 86.054688 46.898438 85.988281 46.472656 C 85.988281 46.460938 85.996094 46.449219 85.996094 46.433594 C 85.984375 45.582031 85.976562 44.726562 85.894531 43.875 C 85.859375 43.511719 85.859375 43.03125 85.65625 42.710938 C 85.425781 42.351562 84.828125 42.234375 84.445312 42.121094 C 83.503906 41.847656 82.503906 41.746094 81.523438 41.835938 C 81.046875 41.878906 80.570312 41.960938 80.109375 42.089844 C 79.710938 42.199219 79.167969 42.28125 78.980469 42.699219 C 78.882812 42.921875 78.886719 43.179688 78.863281 43.414062 C 78.839844 43.730469 78.8125 44.050781 78.789062 44.367188 C 78.75 44.902344 78.664062 45.472656 78.726562 46.011719 C 78.554688 46.585938 78.640625 47.210938 79.144531 47.652344 C 79.585938 48.039062 80.183594 48.179688 80.75 48.273438 C 80.722656 48.410156 80.710938 48.550781 80.703125 48.691406 C 80.511719 48.675781 80.304688 48.726562 80.113281 48.738281 C 79.828125 48.761719 79.546875 48.785156 79.265625 48.820312 C 78.753906 48.878906 78.242188 48.929688 77.730469 48.992188 C 76.738281 49.113281 75.738281 49.214844 74.746094 49.304688 C 70.914062 48.4375 67.019531 47.835938 63.101562 47.507812 C 56.542969 46.953125 49.925781 47.160156 43.414062 48.128906 C 40.179688 48.609375 36.96875 49.285156 33.8125 50.160156 C 30.847656 50.980469 27.863281 51.925781 25.046875 53.1875 C 22.820312 54.183594 20.703125 55.480469 18.859375 57.085938 C 17.058594 58.65625 15.46875 60.609375 14.746094 62.921875 C 14.363281 64.152344 14.273438 65.441406 14.453125 66.691406 C 14.449219 66.820312 14.449219 66.949219 14.46875 67.066406 C 14.503906 67.316406 14.613281 67.582031 14.691406 67.824219 C 14.925781 68.65625 15.273438 69.457031 15.738281 70.195312 C 15.777344 70.257812 15.820312 70.320312 15.863281 70.382812 C 16.167969 70.914062 16.503906 71.425781 16.875 71.914062 C 18.179688 73.621094 19.777344 75.070312 21.539062 76.289062 C 22.84375 77.191406 24.242188 77.953125 25.675781 78.628906 C 26.425781 79.640625 27.195312 80.640625 27.960938 81.644531 C 27.960938 81.652344 27.964844 81.664062 27.96875 81.671875 C 27.972656 81.6875 27.984375 81.691406 27.996094 81.691406 C 28.042969 81.75 28.085938 81.808594 28.132812 81.867188 C 29.242188 83.332031 30.34375 84.804688 31.429688 86.289062 C 33.597656 89.238281 35.710938 92.230469 37.78125 95.253906 C 38.351562 96.085938 38.917969 96.917969 39.476562 97.757812 C 39.753906 98.171875 40.03125 98.585938 40.308594 99 C 40.445312 99.207031 40.582031 99.410156 40.71875 99.617188 C 40.78125 99.71875 40.839844 99.828125 40.921875 99.921875 C 40.921875 99.921875 40.925781 99.925781 40.929688 99.929688 C 40.996094 100.097656 41.15625 100.230469 41.382812 100.183594 C 46.003906 99.210938 50.644531 98.3125 55.285156 97.433594 C 59.902344 96.558594 64.527344 95.707031 69.144531 94.816406 C 73.773438 93.925781 78.386719 92.972656 82.996094 91.976562 C 87.570312 90.988281 92.132812 89.960938 96.6875 88.875 C 101.257812 87.785156 105.820312 86.65625 110.34375 85.382812 C 110.902344 85.226562 111.453125 85.0625 112.003906 84.882812 C 112.179688 84.828125 112.238281 84.671875 112.210938 84.53125 C 112.214844 84.519531 112.21875 84.507812 112.21875 84.492188 C 112.253906 83.222656 112.28125 81.949219 112.273438 80.679688 C 112.269531 80.0625 112.261719 79.4375 112.226562 78.820312 C 112.195312 78.363281 112.210938 77.839844 112.09375 77.378906 C 112.128906 77.367188 112.164062 77.359375 112.203125 77.351562 C 112.847656 77.183594 113.496094 77.019531 114.144531 76.851562 C 114.3125 76.902344 114.53125 76.816406 114.535156 76.582031 C 114.550781 75.714844 114.554688 74.839844 114.523438 73.972656 Z M 88.785156 49.558594 C 89.714844 50.074219 90.503906 50.804688 91.3125 51.488281 C 93.484375 53.324219 95.652344 55.164062 97.796875 57.042969 C 102.121094 60.835938 106.351562 64.734375 110.503906 68.714844 C 111.523438 69.691406 112.613281 70.640625 113.566406 71.683594 C 113.675781 71.804688 113.835938 71.960938 113.789062 72.132812 C 113.746094 72.273438 113.628906 72.304688 113.496094 72.347656 C 113.269531 72.425781 113.035156 72.484375 112.808594 72.546875 C 112.417969 72.65625 112.027344 72.769531 111.640625 72.878906 C 110.164062 73.296875 108.691406 73.71875 107.21875 74.136719 C 104.640625 74.875 102.066406 75.625 99.484375 76.34375 C 97.074219 77.015625 94.65625 77.660156 92.230469 78.289062 C 89.550781 78.984375 86.855469 79.632812 84.152344 80.253906 C 80.746094 81.035156 77.332031 81.777344 73.914062 82.492188 C 69.390625 83.441406 64.867188 84.375 60.335938 85.269531 C 55.820312 86.164062 51.300781 87.015625 46.777344 87.867188 C 45.480469 88.113281 44.183594 88.359375 42.890625 88.613281 C 41.964844 88.796875 40.902344 88.871094 39.988281 88.578125 C 39.570312 88.449219 39.265625 88.089844 38.980469 87.769531 C 38.675781 87.425781 38.394531 87.058594 38.101562 86.699219 C 37.25 85.664062 36.398438 84.632812 35.582031 83.570312 C 35.117188 82.964844 34.660156 82.355469 34.203125 81.746094 C 35.476562 82.097656 36.757812 82.402344 38.050781 82.660156 C 38.445312 82.738281 38.839844 82.8125 39.234375 82.882812 C 43.75 83.828125 48.375 84.257812 52.984375 84.140625 C 53.90625 84.117188 54.824219 84.066406 55.742188 83.996094 C 55.804688 84.046875 55.886719 84.078125 55.992188 84.074219 C 60.8125 83.875 65.613281 83.320312 70.355469 82.425781 C 74.960938 81.554688 79.554688 80.386719 83.972656 78.808594 C 87.953125 77.386719 91.902344 75.378906 94.429688 71.859375 C 95.597656 70.234375 96.414062 68.34375 96.660156 66.34375 C 96.683594 66.167969 96.695312 65.992188 96.707031 65.816406 C 96.738281 65.84375 96.761719 65.875 96.789062 65.898438 C 97.371094 66.394531 98.066406 66.769531 98.808594 66.945312 C 99.515625 67.113281 100.285156 67.109375 100.949219 66.78125 C 101.546875 66.488281 101.890625 65.863281 102.042969 65.238281 C 102.195312 64.632812 102.203125 63.992188 102.117188 63.371094 C 102.128906 63.125 102.09375 62.871094 101.988281 62.613281 C 101.792969 62.148438 101.441406 61.78125 101.078125 61.445312 C 100.628906 61.03125 100.171875 60.625 99.71875 60.214844 C 98.800781 59.386719 97.886719 58.5625 96.96875 57.734375 C 95.113281 56.058594 93.257812 54.382812 91.402344 52.707031 C 90.492188 51.882812 89.605469 50.996094 88.617188 50.265625 C 88.183594 49.945312 87.707031 49.671875 87.1875 49.515625 C 86.953125 49.445312 86.691406 49.398438 86.441406 49.398438 C 86.226562 49.398438 86.023438 49.464844 85.828125 49.550781 C 85.828125 49.542969 85.828125 49.539062 85.828125 49.53125 C 85.820312 49.339844 85.816406 49.144531 85.808594 48.953125 C 86.855469 48.882812 87.855469 49.042969 88.785156 49.558594 Z M 31.105469 83.390625 C 31.109375 83.742188 31.128906 84.089844 31.148438 84.441406 C 31.164062 84.640625 31.171875 84.84375 31.203125 85.042969 C 30.90625 84.640625 30.609375 84.242188 30.308594 83.84375 C 30.328125 83.226562 30.265625 82.617188 30.226562 82.003906 C 30.199219 81.558594 30.179688 81.109375 30.160156 80.664062 C 30.476562 81.089844 30.792969 81.519531 31.109375 81.949219 C 31.089844 82.429688 31.09375 82.914062 31.105469 83.390625 Z M 82.335938 48.375 C 82.285156 48.898438 82.261719 49.429688 82.25 49.960938 C 82.234375 49.941406 82.214844 49.921875 82.191406 49.90625 C 82.109375 49.859375 82.007812 49.847656 81.917969 49.828125 C 81.835938 49.808594 81.753906 49.785156 81.667969 49.777344 C 81.617188 49.769531 81.671875 49.777344 81.632812 49.773438 C 81.609375 49.769531 81.589844 49.765625 81.566406 49.761719 C 81.519531 49.757812 81.46875 49.75 81.417969 49.742188 C 81.367188 49.738281 81.308594 49.726562 81.253906 49.734375 C 81.261719 49.699219 81.265625 49.660156 81.257812 49.621094 C 81.214844 49.367188 81.15625 49.121094 81.140625 48.859375 C 81.132812 48.683594 81.140625 48.511719 81.148438 48.335938 C 81.539062 48.394531 81.957031 48.445312 82.335938 48.375 Z M 83.628906 47.203125 C 83.632812 47.480469 83.628906 47.757812 83.621094 48.03125 C 83.609375 48.570312 83.578125 49.109375 83.566406 49.644531 C 83.507812 51.828125 83.507812 54.015625 83.507812 56.195312 C 83.507812 56.796875 83.503906 57.398438 83.5 58 C 83.496094 58.300781 83.496094 58.601562 83.492188 58.898438 C 83.492188 59 83.480469 59.101562 83.480469 59.203125 C 83.257812 59.09375 83.007812 59.046875 82.761719 59.050781 C 82.683594 59.054688 82.609375 59.066406 82.539062 59.085938 C 82.554688 58.730469 82.523438 58.363281 82.527344 58.015625 C 82.527344 57.550781 82.527344 57.082031 82.53125 56.617188 C 82.539062 55.671875 82.546875 54.722656 82.5625 53.777344 C 82.574219 52.832031 82.589844 51.882812 82.605469 50.9375 C 82.621094 49.972656 82.691406 48.992188 82.632812 48.027344 C 82.632812 48.007812 82.628906 47.984375 82.617188 47.96875 C 82.621094 47.945312 82.621094 47.917969 82.621094 47.894531 C 82.636719 47.617188 82.636719 47.339844 82.644531 47.0625 C 82.652344 46.820312 82.671875 46.566406 82.875 46.40625 C 83.070312 46.253906 83.367188 46.261719 83.515625 46.480469 C 83.65625 46.675781 83.625 46.980469 83.628906 47.203125 Z M 85.25 48.035156 C 85.285156 48.011719 85.316406 47.988281 85.351562 47.964844 C 85.347656 48.253906 85.34375 48.539062 85.347656 48.828125 C 85.351562 49.0625 85.351562 49.296875 85.355469 49.53125 C 85.355469 49.695312 85.355469 49.863281 85.359375 50.027344 C 85.289062 50.023438 85.222656 50.023438 85.164062 50.019531 C 85.015625 50.011719 84.867188 50.011719 84.71875 50.011719 C 84.578125 50.011719 84.4375 50.011719 84.296875 50.007812 C 84.226562 50.007812 84.160156 50 84.089844 50 C 84.066406 50 84.042969 50.003906 84.015625 50.003906 C 84.027344 49.578125 84.039062 49.148438 84.054688 48.71875 C 84.058594 48.625 84.058594 48.527344 84.0625 48.433594 C 84.457031 48.472656 84.988281 48.203125 85.25 48.035156 Z M 80.957031 50.03125 C 81.03125 50.007812 81.105469 49.992188 81.183594 49.976562 C 81.226562 50.011719 81.285156 50.03125 81.335938 50.050781 C 81.417969 50.085938 81.5 50.121094 81.582031 50.148438 C 81.660156 50.179688 81.734375 50.199219 81.8125 50.222656 C 81.902344 50.25 81.996094 50.289062 82.089844 50.289062 C 82.15625 50.285156 82.210938 50.253906 82.246094 50.207031 C 82.238281 50.453125 82.234375 50.695312 82.226562 50.9375 C 82.222656 51.082031 82.21875 51.222656 82.210938 51.367188 C 81.171875 51.023438 80.121094 50.703125 79.0625 50.40625 C 79.210938 50.378906 79.355469 50.351562 79.503906 50.328125 C 79.761719 50.292969 80.015625 50.261719 80.277344 50.238281 C 80.511719 50.214844 80.824219 50.238281 80.957031 50.03125 Z M 82.195312 60.253906 C 82.210938 60.125 82.261719 60.007812 82.292969 59.882812 C 82.316406 59.8125 82.335938 59.714844 82.316406 59.636719 C 82.324219 59.625 82.332031 59.613281 82.34375 59.605469 C 82.417969 59.597656 82.484375 59.554688 82.5 59.476562 C 82.511719 59.46875 82.523438 59.460938 82.535156 59.457031 C 82.652344 59.421875 82.800781 59.429688 82.921875 59.449219 C 83.144531 59.476562 83.359375 59.578125 83.511719 59.753906 C 83.800781 60.09375 83.808594 60.640625 83.636719 61.035156 C 83.550781 61.226562 83.417969 61.417969 83.226562 61.507812 C 83.027344 61.605469 82.796875 61.550781 82.621094 61.433594 C 82.453125 61.316406 82.347656 61.128906 82.289062 60.9375 C 82.222656 60.722656 82.167969 60.476562 82.195312 60.253906 Z M 84.011719 50.34375 C 84.089844 50.363281 84.175781 50.375 84.25 50.382812 C 84.394531 50.402344 84.542969 50.410156 84.6875 50.425781 C 84.832031 50.4375 84.972656 50.441406 85.117188 50.453125 C 85.257812 50.464844 85.398438 50.503906 85.539062 50.503906 C 85.5625 50.503906 85.582031 50.496094 85.601562 50.492188 C 85.714844 50.496094 85.828125 50.421875 85.839844 50.265625 C 85.84375 50.167969 85.84375 50.066406 85.839844 49.96875 C 86.226562 49.996094 86.640625 50.050781 87.007812 50.160156 C 87.417969 50.285156 87.792969 50.507812 88.144531 50.757812 C 88.921875 51.308594 89.605469 52.007812 90.3125 52.644531 C 91.992188 54.164062 93.671875 55.683594 95.351562 57.207031 C 97.042969 58.738281 98.734375 60.269531 100.421875 61.800781 C 100.972656 62.296875 101.75 63.019531 101.261719 63.8125 C 100.855469 64.476562 100.003906 64.671875 99.296875 64.46875 C 98.34375 64.191406 97.605469 63.414062 96.953125 62.707031 C 96.640625 62.367188 96.335938 62.015625 96.042969 61.660156 C 95.898438 61.292969 95.734375 60.929688 95.550781 60.582031 C 93.535156 56.738281 89.628906 54.347656 85.820312 52.582031 C 85.585938 52.476562 85.347656 52.378906 85.109375 52.273438 C 84.894531 52.179688 84.671875 52.121094 84.445312 52.058594 C 84.292969 51.984375 84.144531 51.90625 83.992188 51.832031 C 83.996094 51.335938 84.003906 50.835938 84.011719 50.34375 Z M 96.722656 64.875 C 96.703125 64.347656 96.636719 63.824219 96.53125 63.308594 C 96.546875 63.328125 96.5625 63.34375 96.578125 63.359375 C 96.585938 63.460938 96.601562 63.558594 96.609375 63.660156 C 96.636719 63.878906 96.660156 64.097656 96.691406 64.316406 C 96.71875 64.53125 96.75 64.742188 96.785156 64.957031 C 96.761719 64.929688 96.742188 64.902344 96.722656 64.875 Z M 97.074219 65.269531 C 97.074219 65.253906 97.070312 65.238281 97.066406 65.222656 C 97.046875 65.113281 97.027344 65.003906 97.011719 64.894531 C 96.976562 64.691406 96.945312 64.488281 96.914062 64.285156 C 96.882812 64.078125 96.855469 63.867188 96.832031 63.65625 C 96.828125 63.644531 96.828125 63.632812 96.828125 63.621094 C 97.011719 63.8125 97.207031 63.996094 97.40625 64.171875 C 97.378906 64.289062 97.382812 64.421875 97.390625 64.539062 C 97.402344 64.710938 97.414062 64.886719 97.433594 65.0625 C 97.449219 65.25 97.472656 65.433594 97.496094 65.617188 C 97.457031 65.589844 97.417969 65.566406 97.378906 65.535156 C 97.273438 65.453125 97.175781 65.363281 97.074219 65.269531 Z M 97.832031 65.84375 C 97.796875 65.570312 97.761719 65.296875 97.730469 65.023438 C 97.707031 64.847656 97.691406 64.671875 97.675781 64.496094 C 97.671875 64.457031 97.667969 64.421875 97.660156 64.378906 C 97.886719 64.554688 98.121094 64.710938 98.367188 64.84375 C 98.367188 64.875 98.363281 64.90625 98.363281 64.9375 C 98.367188 65.023438 98.378906 65.109375 98.390625 65.195312 C 98.410156 65.371094 98.445312 65.550781 98.464844 65.726562 C 98.484375 65.875 98.5 66.023438 98.511719 66.167969 C 98.277344 66.082031 98.050781 65.972656 97.832031 65.84375 Z M 98.816406 66.269531 C 98.816406 66.253906 98.8125 66.242188 98.8125 66.226562 C 98.792969 66.054688 98.773438 65.882812 98.75 65.707031 C 98.726562 65.535156 98.703125 65.363281 98.671875 65.195312 C 98.65625 65.117188 98.636719 65.042969 98.617188 64.96875 C 98.933594 65.109375 99.261719 65.207031 99.597656 65.238281 C 99.601562 65.292969 99.609375 65.347656 99.613281 65.398438 C 99.625 65.539062 99.628906 65.679688 99.640625 65.816406 C 99.648438 65.957031 99.65625 66.09375 99.660156 66.234375 C 99.660156 66.285156 99.65625 66.351562 99.65625 66.414062 C 99.46875 66.40625 99.28125 66.386719 99.109375 66.351562 C 99.011719 66.328125 98.914062 66.296875 98.816406 66.269531 Z M 99.9375 66.410156 C 99.933594 66.335938 99.921875 66.257812 99.917969 66.203125 C 99.910156 66.0625 99.898438 65.921875 99.882812 65.78125 C 99.867188 65.644531 99.84375 65.507812 99.820312 65.371094 C 99.8125 65.332031 99.804688 65.289062 99.796875 65.25 C 100.121094 65.261719 100.441406 65.207031 100.75 65.085938 C 100.746094 65.175781 100.75 65.265625 100.753906 65.355469 C 100.757812 65.46875 100.769531 65.578125 100.78125 65.6875 C 100.792969 65.804688 100.792969 65.929688 100.851562 66.03125 C 100.867188 66.054688 100.886719 66.070312 100.90625 66.082031 C 100.882812 66.101562 100.863281 66.121094 100.835938 66.140625 C 100.582031 66.3125 100.261719 66.390625 99.9375 66.410156 Z M 101.105469 65.890625 C 101.101562 65.808594 101.082031 65.726562 101.070312 65.648438 C 101.054688 65.539062 101.035156 65.429688 101.011719 65.320312 C 100.988281 65.21875 100.96875 65.109375 100.929688 65.011719 C 101.019531 64.964844 101.105469 64.921875 101.191406 64.863281 C 101.355469 64.753906 101.5 64.628906 101.625 64.488281 C 101.613281 64.578125 101.597656 64.667969 101.578125 64.757812 C 101.492188 65.148438 101.367188 65.574219 101.105469 65.890625 Z M 42.421875 82.738281 C 42.472656 82.746094 42.523438 82.753906 42.578125 82.761719 C 42.523438 82.753906 42.472656 82.746094 42.421875 82.738281 Z M 44.097656 82.972656 C 44.296875 82.996094 44.492188 83.023438 44.6875 83.046875 C 44.492188 83.023438 44.296875 82.996094 44.097656 82.972656 Z M 79.136719 45.246094 C 79.152344 45.101562 79.167969 44.957031 79.183594 44.816406 C 79.238281 44.335938 79.289062 43.851562 79.335938 43.367188 C 79.351562 43.203125 79.335938 42.945312 79.464844 42.820312 C 79.597656 42.6875 79.890625 42.644531 80.0625 42.597656 C 80.484375 42.484375 80.914062 42.414062 81.347656 42.378906 C 82.203125 42.3125 83.070312 42.375 83.90625 42.585938 C 84.105469 42.640625 84.304688 42.695312 84.5 42.765625 C 84.679688 42.824219 84.957031 42.878906 85.101562 43.003906 C 85.207031 43.097656 85.210938 43.292969 85.230469 43.425781 C 85.253906 43.589844 85.269531 43.753906 85.28125 43.917969 C 85.320312 44.359375 85.339844 44.808594 85.351562 45.253906 C 84.832031 44.738281 84.082031 44.433594 83.363281 44.335938 C 82.707031 44.242188 82.027344 44.242188 81.363281 44.296875 C 80.742188 44.351562 80.09375 44.484375 79.570312 44.84375 C 79.410156 44.953125 79.265625 45.089844 79.136719 45.246094 Z M 79.199219 46.679688 C 79.136719 46.261719 79.332031 45.820312 79.613281 45.523438 C 80.316406 44.777344 81.542969 44.8125 82.484375 44.851562 C 83.453125 44.890625 84.574219 45.109375 85.128906 45.996094 C 85.40625 46.4375 85.503906 47.03125 85.042969 47.382812 C 84.859375 47.519531 84.628906 47.652344 84.40625 47.710938 C 84.296875 47.742188 84.1875 47.75 84.082031 47.765625 C 84.085938 47.484375 84.082031 47.199219 84.0625 46.914062 C 84.027344 46.445312 83.859375 46 83.351562 45.890625 C 82.851562 45.785156 82.398438 46.152344 82.296875 46.632812 C 82.230469 46.945312 82.265625 47.28125 82.265625 47.597656 C 82.265625 47.71875 82.25 47.871094 82.265625 48.007812 C 81.929688 47.988281 81.597656 47.917969 81.269531 47.851562 C 80.859375 47.773438 80.429688 47.695312 80.039062 47.542969 C 79.644531 47.394531 79.265625 47.125 79.199219 46.679688 Z M 77.78125 49.609375 C 78.273438 49.53125 78.769531 49.457031 79.261719 49.394531 C 79.554688 49.355469 79.847656 49.316406 80.136719 49.269531 C 80.328125 49.242188 80.53125 49.246094 80.71875 49.195312 C 80.730469 49.355469 80.757812 49.511719 80.800781 49.660156 C 80.636719 49.589844 80.421875 49.613281 80.246094 49.621094 C 79.945312 49.632812 79.640625 49.660156 79.34375 49.699219 C 79.050781 49.738281 78.765625 49.785156 78.476562 49.847656 C 78.351562 49.875 78.207031 49.917969 78.089844 49.941406 C 77.980469 49.960938 77.886719 49.96875 77.808594 50.0625 C 77.441406 49.964844 77.070312 49.867188 76.699219 49.773438 C 77.058594 49.71875 77.417969 49.664062 77.78125 49.609375 Z M 23.113281 54.980469 C 25.449219 53.652344 27.996094 52.746094 30.542969 51.914062 C 33.5625 50.929688 36.636719 50.128906 39.75 49.515625 C 46.019531 48.277344 52.433594 47.792969 58.820312 48.011719 C 64.035156 48.1875 69.230469 48.84375 74.320312 49.980469 C 74.378906 50.039062 74.464844 50.070312 74.574219 50.058594 C 74.589844 50.054688 74.609375 50.054688 74.625 50.050781 C 75.652344 50.285156 76.675781 50.535156 77.691406 50.804688 C 79.167969 51.203125 80.636719 51.640625 82.089844 52.117188 C 82.125 52.128906 82.15625 52.132812 82.191406 52.136719 C 82.175781 52.683594 82.164062 53.230469 82.15625 53.777344 C 82.140625 54.722656 82.132812 55.667969 82.125 56.613281 C 82.125 57.082031 82.121094 57.550781 82.121094 58.015625 C 82.121094 58.46875 82.070312 58.964844 82.140625 59.414062 C 82.121094 59.445312 82.097656 59.472656 82.085938 59.507812 C 82.082031 59.507812 82.082031 59.511719 82.082031 59.515625 C 82.023438 59.539062 81.96875 59.589844 81.9375 59.640625 C 81.851562 59.765625 81.804688 59.914062 81.773438 60.0625 C 81.71875 60.324219 81.742188 60.585938 81.792969 60.847656 C 81.835938 61.074219 81.914062 61.308594 82.046875 61.5 C 82.351562 61.945312 82.925781 62.167969 83.429688 61.929688 C 83.875 61.71875 84.125 61.210938 84.1875 60.742188 C 84.246094 60.3125 84.148438 59.839844 83.871094 59.507812 C 83.894531 59.382812 83.890625 59.25 83.890625 59.097656 C 83.894531 58.765625 83.898438 58.433594 83.902344 58.097656 C 83.910156 57.464844 83.917969 56.828125 83.929688 56.195312 C 83.949219 54.949219 83.972656 53.703125 83.984375 52.453125 C 86.640625 53.828125 89.375 55.210938 91.628906 57.203125 C 92.839844 58.277344 93.9375 59.574219 94.703125 61.027344 C 94.726562 61.105469 94.765625 61.183594 94.820312 61.261719 C 95.296875 62.222656 95.628906 63.25 95.75 64.324219 C 95.722656 64.417969 95.742188 64.503906 95.777344 64.597656 C 95.777344 64.601562 95.777344 64.601562 95.777344 64.601562 C 95.78125 64.652344 95.789062 64.703125 95.792969 64.753906 C 95.976562 67.707031 94.570312 70.53125 92.574219 72.628906 C 90.410156 74.898438 87.539062 76.351562 84.640625 77.445312 C 81.515625 78.625 78.277344 79.539062 75.03125 80.3125 C 71.667969 81.117188 68.261719 81.734375 64.832031 82.15625 C 61.421875 82.578125 57.992188 82.8125 54.554688 82.855469 C 53.484375 82.871094 52.417969 82.835938 51.347656 82.804688 C 49.636719 82.761719 47.9375 82.71875 46.234375 82.550781 C 42.738281 82.203125 39.28125 81.535156 35.867188 80.738281 C 32.773438 80.015625 29.738281 79.113281 26.847656 77.785156 C 24.039062 76.496094 21.359375 74.859375 19.023438 72.824219 C 16.902344 70.976562 15.152344 68.628906 15.066406 65.703125 C 14.929688 60.84375 19.269531 57.164062 23.113281 54.980469 Z M 27.472656 79.429688 C 27.585938 79.476562 27.703125 79.519531 27.816406 79.566406 C 27.808594 79.628906 27.796875 79.6875 27.789062 79.75 C 27.765625 79.964844 27.765625 80.183594 27.765625 80.398438 C 27.765625 80.425781 27.769531 80.457031 27.769531 80.484375 C 27.410156 80.015625 27.046875 79.550781 26.679688 79.089844 C 26.941406 79.203125 27.207031 79.316406 27.472656 79.429688 Z M 27.992188 80.773438 C 27.992188 80.648438 27.992188 80.523438 27.992188 80.398438 C 27.988281 80.191406 27.992188 79.980469 28 79.773438 C 28 79.730469 28 79.6875 28 79.640625 C 28.277344 79.753906 28.550781 79.863281 28.828125 79.972656 C 28.773438 80.328125 28.75 80.6875 28.730469 81.046875 C 28.722656 81.277344 28.710938 81.507812 28.726562 81.738281 C 28.484375 81.414062 28.238281 81.09375 27.992188 80.773438 Z M 28.945312 82.027344 C 28.953125 81.929688 28.957031 81.828125 28.960938 81.730469 C 28.964844 81.503906 28.957031 81.273438 28.960938 81.046875 C 28.964844 80.710938 28.988281 80.378906 29.007812 80.042969 C 29.324219 80.164062 29.644531 80.277344 29.960938 80.390625 C 29.984375 80.421875 30.007812 80.453125 30.027344 80.484375 C 29.984375 81 29.972656 81.519531 29.988281 82.042969 C 30.003906 82.585938 30.042969 83.125 30.171875 83.652344 C 29.777344 83.128906 29.382812 82.601562 28.988281 82.078125 C 28.972656 82.0625 28.960938 82.042969 28.945312 82.027344 Z M 31.417969 85.335938 C 31.460938 85.035156 31.417969 84.742188 31.394531 84.441406 C 31.371094 84.089844 31.347656 83.742188 31.328125 83.390625 C 31.300781 82.984375 31.285156 82.578125 31.273438 82.167969 C 31.558594 82.554688 31.84375 82.941406 32.128906 83.324219 C 32.132812 83.9375 32.199219 84.554688 32.238281 85.160156 C 32.269531 85.632812 32.285156 86.105469 32.332031 86.570312 C 32.03125 86.160156 31.722656 85.746094 31.417969 85.335938 Z M 37.457031 90.390625 C 37.46875 91.039062 37.53125 91.691406 37.566406 92.339844 C 37.597656 92.929688 37.628906 93.519531 37.703125 94.105469 C 37.382812 93.648438 37.066406 93.191406 36.742188 92.734375 C 36.800781 92.117188 36.707031 91.46875 36.664062 90.859375 C 36.621094 90.269531 36.546875 89.683594 36.46875 89.101562 C 36.621094 89.300781 36.773438 89.503906 36.929688 89.703125 C 37.101562 89.929688 37.277344 90.160156 37.457031 90.390625 Z M 36.4375 90.902344 C 36.46875 91.40625 36.46875 91.941406 36.546875 92.453125 C 36.261719 92.050781 35.976562 91.644531 35.6875 91.242188 C 35.707031 91.039062 35.707031 90.835938 35.710938 90.636719 C 35.714844 90.261719 35.710938 89.890625 35.699219 89.519531 C 35.675781 88.976562 35.644531 88.433594 35.550781 87.902344 C 35.832031 88.273438 36.117188 88.640625 36.398438 89.011719 C 36.394531 89.640625 36.398438 90.269531 36.4375 90.902344 Z M 35.453125 87.769531 C 35.464844 88.367188 35.507812 88.964844 35.523438 89.558594 C 35.53125 89.917969 35.535156 90.277344 35.53125 90.636719 C 35.53125 90.757812 35.527344 90.882812 35.523438 91.003906 C 35.242188 90.609375 34.960938 90.21875 34.679688 89.824219 C 34.675781 89.652344 34.65625 89.472656 34.652344 89.316406 C 34.640625 88.953125 34.632812 88.589844 34.621094 88.226562 C 34.609375 87.878906 34.601562 87.527344 34.589844 87.179688 C 34.585938 86.992188 34.585938 86.800781 34.578125 86.609375 C 34.871094 86.996094 35.160156 87.386719 35.453125 87.769531 Z M 34.394531 87.136719 C 34.402344 87.5 34.40625 87.863281 34.414062 88.226562 C 34.417969 88.578125 34.425781 88.925781 34.433594 89.277344 C 34.433594 89.339844 34.433594 89.40625 34.429688 89.476562 C 34.160156 89.097656 33.890625 88.722656 33.617188 88.34375 C 33.625 87.734375 33.546875 87.117188 33.515625 86.511719 C 33.488281 86.039062 33.476562 85.566406 33.445312 85.09375 C 33.757812 85.511719 34.066406 85.929688 34.378906 86.347656 C 34.382812 86.351562 34.386719 86.355469 34.390625 86.359375 C 34.371094 86.617188 34.390625 86.878906 34.394531 87.136719 Z M 33.296875 86.601562 C 33.316406 87.0625 33.320312 87.535156 33.371094 88.003906 C 33.09375 87.625 32.820312 87.246094 32.542969 86.867188 C 32.539062 86.269531 32.464844 85.667969 32.421875 85.070312 C 32.382812 84.574219 32.359375 84.066406 32.304688 83.5625 C 32.625 83.992188 32.941406 84.417969 33.261719 84.84375 C 33.238281 85.429688 33.273438 86.019531 33.296875 86.601562 Z M 37.820312 94.273438 C 37.832031 93.601562 37.777344 92.925781 37.726562 92.253906 C 37.6875 91.699219 37.667969 91.140625 37.617188 90.589844 C 37.878906 90.910156 38.15625 91.222656 38.460938 91.5 C 38.484375 92.261719 38.546875 93.019531 38.605469 93.78125 C 38.65625 94.390625 38.683594 95.007812 38.753906 95.621094 C 38.726562 95.578125 38.699219 95.539062 38.671875 95.5 C 38.390625 95.089844 38.105469 94.683594 37.820312 94.273438 Z M 38.910156 95.847656 C 38.886719 95.125 38.796875 94.398438 38.734375 93.679688 C 38.671875 92.96875 38.609375 92.253906 38.511719 91.546875 C 38.808594 91.8125 39.128906 92.046875 39.488281 92.222656 C 39.488281 92.226562 39.492188 92.226562 39.492188 92.226562 C 39.476562 93.1875 39.582031 94.167969 39.640625 95.125 C 39.675781 95.660156 39.699219 96.195312 39.742188 96.730469 C 39.75 96.855469 39.757812 96.984375 39.769531 97.109375 C 39.480469 96.691406 39.195312 96.269531 38.910156 95.847656 Z M 40.183594 97.722656 C 40.113281 97.621094 40.039062 97.515625 39.96875 97.40625 C 39.957031 97.148438 39.9375 96.886719 39.925781 96.628906 C 39.898438 96.09375 39.859375 95.558594 39.824219 95.023438 C 39.761719 94.121094 39.75 93.1875 39.625 92.285156 C 39.949219 92.429688 40.28125 92.511719 40.617188 92.554688 C 40.59375 93.066406 40.675781 93.605469 40.707031 94.113281 C 40.746094 94.734375 40.78125 95.359375 40.824219 95.980469 C 40.890625 96.984375 40.976562 97.988281 41.03125 98.992188 C 41 98.945312 40.964844 98.894531 40.933594 98.847656 C 40.6875 98.472656 40.433594 98.097656 40.183594 97.722656 Z M 111.683594 78.824219 C 111.675781 79.460938 111.683594 80.09375 111.679688 80.730469 C 111.679688 81.9375 111.660156 83.140625 111.628906 84.34375 C 109.425781 84.863281 107.25 85.488281 105.0625 86.050781 C 102.773438 86.644531 100.480469 87.214844 98.183594 87.769531 C 93.632812 88.871094 89.070312 89.902344 84.496094 90.898438 C 79.894531 91.902344 75.285156 92.871094 70.660156 93.769531 C 66.046875 94.667969 61.421875 95.523438 56.800781 96.382812 C 52.15625 97.246094 47.511719 98.121094 42.882812 99.082031 C 42.429688 99.175781 41.976562 99.273438 41.519531 99.367188 C 41.410156 98.222656 41.34375 97.074219 41.253906 95.929688 C 41.210938 95.324219 41.15625 94.71875 41.105469 94.113281 C 41.0625 93.617188 41.0625 93.082031 40.976562 92.582031 C 41.804688 92.613281 42.648438 92.429688 43.46875 92.265625 C 44.984375 91.960938 46.503906 91.652344 48.019531 91.34375 C 51.082031 90.71875 54.144531 90.089844 57.207031 89.457031 C 63.34375 88.1875 69.480469 86.898438 75.605469 85.582031 C 81.773438 84.261719 87.9375 82.917969 94.097656 81.550781 C 99.976562 80.25 105.859375 78.957031 111.695312 77.480469 C 111.640625 77.921875 111.6875 78.394531 111.683594 78.824219 Z M 96.546875 80.300781 C 90.464844 81.660156 84.375 83 78.285156 84.316406 C 72.261719 85.621094 66.234375 86.898438 60.203125 88.160156 C 57.171875 88.792969 54.136719 89.425781 51.101562 90.046875 C 49.609375 90.355469 48.121094 90.660156 46.628906 90.964844 C 45.136719 91.269531 43.644531 91.628906 42.136719 91.871094 C 41.417969 91.988281 40.652344 92.03125 39.960938 91.75 C 39.375 91.507812 38.890625 91.074219 38.464844 90.613281 C 37.574219 89.648438 36.8125 88.546875 36.019531 87.5 C 34.308594 85.25 32.628906 82.980469 30.890625 80.75 C 30.882812 80.738281 30.871094 80.726562 30.859375 80.714844 C 31.738281 81.015625 32.621094 81.289062 33.511719 81.546875 C 34.832031 83.472656 36.269531 85.296875 37.75 87.105469 C 38.28125 87.757812 38.835938 88.660156 39.632812 89.003906 C 40.4375 89.355469 41.523438 89.335938 42.378906 89.234375 C 43.679688 89.078125 44.980469 88.753906 46.269531 88.515625 C 47.402344 88.304688 48.539062 88.097656 49.675781 87.890625 C 51.742188 87.511719 53.804688 87.128906 55.867188 86.726562 C 60.929688 85.742188 65.996094 84.761719 71.046875 83.722656 C 74.796875 82.949219 78.539062 82.15625 82.273438 81.316406 C 85.164062 80.664062 88.046875 79.980469 90.921875 79.265625 C 93.445312 78.640625 95.960938 77.972656 98.464844 77.285156 C 101.070312 76.566406 103.671875 75.84375 106.269531 75.101562 C 107.738281 74.683594 109.210938 74.265625 110.679688 73.847656 C 111.492188 73.617188 112.304688 73.386719 113.117188 73.15625 C 113.390625 73.078125 113.710938 73.019531 113.976562 72.882812 C 113.988281 73.273438 113.976562 73.667969 113.972656 74.0625 C 113.957031 74.765625 113.949219 75.472656 113.949219 76.175781 C 108.175781 77.671875 102.367188 79 96.546875 80.300781 Z M 96.546875 80.300781 " fill-opacity="1" fill-rule="nonzero"/></g><path fill="#fbb03b" d="M 100.421875 82.660156 C 101.582031 82.425781 102.742188 82.183594 103.902344 81.933594 C 104.316406 81.84375 104.140625 81.191406 103.726562 81.296875 C 102.59375 81.578125 101.457031 81.839844 100.3125 82.074219 C 99.757812 82.1875 99.203125 82.296875 98.644531 82.410156 C 98.070312 82.523438 97.4375 82.578125 96.890625 82.792969 C 96.65625 82.886719 96.675781 83.242188 96.953125 83.253906 C 97.515625 83.265625 98.101562 83.105469 98.652344 83.003906 C 99.242188 82.894531 99.832031 82.777344 100.421875 82.660156 Z M 100.421875 82.660156 " fill-opacity="1" fill-rule="nonzero"/><path fill="#fbb03b" d="M 103.820312 83.585938 C 102.769531 83.824219 101.726562 84.105469 100.675781 84.355469 C 100.152344 84.480469 99.628906 84.605469 99.105469 84.734375 C 98.585938 84.859375 98.039062 84.949219 97.539062 85.144531 C 97.261719 85.25 97.261719 85.75 97.617188 85.71875 C 98.144531 85.664062 98.664062 85.511719 99.179688 85.390625 C 99.722656 85.261719 100.261719 85.132812 100.804688 85.003906 C 101.867188 84.753906 102.945312 84.53125 104.007812 84.265625 C 104.445312 84.15625 104.257812 83.484375 103.820312 83.585938 Z M 103.820312 83.585938 " fill-opacity="1" fill-rule="nonzero"/><path fill="#fbb03b" d="M 57.351562 91.527344 C 57.625 91.460938 57.898438 91.398438 58.167969 91.332031 C 58.429688 91.269531 58.820312 91.25 58.925781 90.960938 C 59.007812 90.742188 58.835938 90.546875 58.605469 90.535156 C 58.324219 90.527344 57.976562 90.683594 57.703125 90.757812 C 56.539062 91.058594 55.371094 91.335938 54.195312 91.59375 C 53.519531 91.746094 52.84375 91.886719 52.164062 92.027344 C 51.488281 92.164062 50.800781 92.28125 50.140625 92.480469 C 49.878906 92.5625 49.914062 93.003906 50.210938 92.980469 C 51.410156 92.894531 52.609375 92.589844 53.785156 92.339844 C 54.976562 92.085938 56.164062 91.808594 57.351562 91.527344 Z M 57.351562 91.527344 " fill-opacity="1" fill-rule="nonzero"/><path fill="#fbb03b" d="M 58.765625 92.769531 C 57.527344 93.253906 56.238281 93.554688 54.933594 93.800781 C 54.285156 93.921875 53.632812 94.035156 52.980469 94.152344 C 52.277344 94.277344 51.554688 94.375 50.871094 94.582031 C 50.578125 94.671875 50.617188 95.152344 50.945312 95.132812 C 51.636719 95.097656 52.328125 94.949219 53.011719 94.828125 C 53.695312 94.707031 54.382812 94.589844 55.066406 94.460938 C 56.382812 94.214844 57.699219 93.921875 58.953125 93.453125 C 59.378906 93.296875 59.1875 92.605469 58.765625 92.769531 Z M 58.765625 92.769531 " fill-opacity="1" fill-rule="nonzero"/><path fill="#fbb03b" d="M 75.113281 88.339844 C 75.105469 88.371094 75.105469 88.378906 75.109375 88.371094 C 75.113281 88.367188 75.113281 88.363281 75.113281 88.359375 C 75.113281 88.355469 75.113281 88.347656 75.117188 88.339844 C 75.113281 88.339844 75.113281 88.339844 75.113281 88.339844 Z M 75.113281 88.339844 " fill-opacity="1" fill-rule="nonzero"/><path fill="#fbb03b" d="M 75.074219 88.195312 C 75.074219 88.191406 75.074219 88.191406 75.074219 88.191406 C 75.066406 88.183594 75.058594 88.175781 75.050781 88.167969 C 75.046875 88.167969 75.058594 88.175781 75.074219 88.195312 Z M 75.074219 88.195312 " fill-opacity="1" fill-rule="nonzero"/><path fill="#fbb03b" d="M 75.113281 88.292969 C 75.113281 88.285156 75.109375 88.273438 75.105469 88.265625 C 75.109375 88.269531 75.113281 88.28125 75.113281 88.292969 Z M 75.113281 88.292969 " fill-opacity="1" fill-rule="nonzero"/><path fill="#fbb03b" d="M 75.03125 88.148438 C 75.027344 88.144531 75.023438 88.140625 75.019531 88.136719 C 75.015625 88.132812 75.011719 88.128906 75.003906 88.125 C 75.003906 88.125 75.003906 88.125 75.003906 88.121094 C 75.023438 88.144531 75.035156 88.152344 75.03125 88.148438 Z M 75.03125 88.148438 " fill-opacity="1" fill-rule="nonzero"/><path fill="#fbb03b" d="M 75.035156 88.519531 C 75.039062 88.519531 75.039062 88.519531 75.039062 88.515625 C 75.042969 88.511719 75.046875 88.507812 75.050781 88.5 C 75.050781 88.5 75.054688 88.5 75.054688 88.5 C 75.019531 88.527344 75.023438 88.53125 75.035156 88.519531 Z M 75.035156 88.519531 " fill-opacity="1" fill-rule="nonzero"/><path fill="#fbb03b" d="M 74.542969 88.480469 C 74.542969 88.480469 74.542969 88.480469 74.546875 88.484375 C 74.550781 88.484375 74.554688 88.492188 74.558594 88.496094 C 74.558594 88.492188 74.550781 88.484375 74.542969 88.480469 Z M 74.542969 88.480469 " fill-opacity="1" fill-rule="nonzero"/><path fill="#fbb03b" d="M 74.9375 88.085938 C 74.933594 88.082031 74.929688 88.082031 74.925781 88.078125 C 74.921875 88.078125 74.917969 88.078125 74.914062 88.078125 C 74.914062 88.078125 74.925781 88.082031 74.945312 88.089844 C 74.941406 88.089844 74.941406 88.085938 74.9375 88.085938 Z M 74.9375 88.085938 " fill-opacity="1" fill-rule="nonzero"/><path fill="#fbb03b" d="M 75.246094 87.484375 C 75.125 87.425781 75.015625 87.398438 74.886719 87.382812 C 74.820312 87.375 74.753906 87.375 74.6875 87.390625 C 74.628906 87.410156 74.566406 87.441406 74.519531 87.488281 C 74.511719 87.492188 74.507812 87.5 74.5 87.511719 C 74.457031 87.527344 74.414062 87.542969 74.371094 87.5625 C 74.214844 87.644531 74.066406 87.804688 73.996094 87.964844 C 73.90625 88.160156 73.878906 88.371094 73.941406 88.578125 C 74.007812 88.785156 74.140625 88.949219 74.308594 89.082031 C 74.460938 89.195312 74.664062 89.261719 74.851562 89.257812 C 75.074219 89.25 75.269531 89.160156 75.4375 89.019531 C 75.582031 88.898438 75.6875 88.71875 75.738281 88.539062 C 75.792969 88.324219 75.769531 88.109375 75.675781 87.914062 C 75.589844 87.730469 75.425781 87.570312 75.246094 87.484375 Z M 74.464844 87.890625 C 74.472656 87.902344 74.480469 87.914062 74.488281 87.921875 C 74.480469 87.910156 74.472656 87.898438 74.460938 87.886719 C 74.460938 87.886719 74.464844 87.890625 74.464844 87.890625 Z M 75.113281 88.355469 C 75.113281 88.359375 75.113281 88.359375 75.113281 88.359375 C 75.113281 88.363281 75.113281 88.367188 75.109375 88.371094 C 75.105469 88.390625 75.097656 88.414062 75.089844 88.433594 C 75.085938 88.441406 75.082031 88.449219 75.078125 88.457031 C 75.070312 88.472656 75.0625 88.488281 75.054688 88.5 C 75.058594 88.5 75.058594 88.496094 75.0625 88.496094 C 75.054688 88.5 75.046875 88.507812 75.039062 88.519531 C 75.039062 88.519531 75.039062 88.519531 75.035156 88.519531 C 75.027344 88.535156 75.015625 88.546875 75.003906 88.558594 C 74.996094 88.566406 74.988281 88.574219 74.980469 88.578125 C 74.960938 88.59375 74.9375 88.605469 74.917969 88.621094 C 74.902344 88.625 74.890625 88.628906 74.875 88.632812 C 74.867188 88.632812 74.859375 88.636719 74.851562 88.636719 C 74.839844 88.636719 74.824219 88.636719 74.808594 88.636719 C 74.816406 88.636719 74.808594 88.644531 74.785156 88.636719 C 74.785156 88.636719 74.78125 88.636719 74.777344 88.636719 C 74.773438 88.636719 74.769531 88.636719 74.765625 88.636719 C 74.769531 88.632812 74.773438 88.632812 74.777344 88.632812 C 74.765625 88.632812 74.753906 88.628906 74.742188 88.625 C 74.730469 88.621094 74.71875 88.617188 74.707031 88.613281 C 74.707031 88.613281 74.703125 88.613281 74.699219 88.609375 C 74.675781 88.597656 74.652344 88.585938 74.632812 88.570312 C 74.621094 88.5625 74.605469 88.550781 74.601562 88.542969 C 74.589844 88.535156 74.578125 88.515625 74.5625 88.5 C 74.566406 88.507812 74.566406 88.511719 74.554688 88.496094 C 74.550781 88.492188 74.550781 88.488281 74.546875 88.484375 C 74.542969 88.484375 74.542969 88.480469 74.539062 88.476562 C 74.542969 88.480469 74.542969 88.480469 74.542969 88.484375 C 74.535156 88.46875 74.523438 88.449219 74.515625 88.433594 C 74.507812 88.425781 74.503906 88.414062 74.5 88.40625 C 74.488281 88.378906 74.484375 88.355469 74.476562 88.332031 C 74.476562 88.316406 74.476562 88.296875 74.476562 88.292969 C 74.476562 88.28125 74.476562 88.265625 74.476562 88.253906 C 74.476562 88.25 74.476562 88.242188 74.476562 88.238281 C 74.484375 88.207031 74.492188 88.175781 74.5 88.144531 C 74.503906 88.144531 74.503906 88.144531 74.503906 88.140625 C 74.507812 88.128906 74.519531 88.109375 74.523438 88.105469 C 74.53125 88.089844 74.542969 88.074219 74.550781 88.058594 C 74.554688 88.054688 74.550781 88.054688 74.554688 88.054688 C 74.566406 88.039062 74.578125 88.027344 74.589844 88.015625 C 74.613281 88.027344 74.640625 88.042969 74.664062 88.046875 C 74.714844 88.0625 74.769531 88.066406 74.820312 88.066406 C 74.835938 88.066406 74.851562 88.066406 74.867188 88.066406 C 74.875 88.066406 74.871094 88.066406 74.875 88.066406 C 74.890625 88.070312 74.902344 88.078125 74.914062 88.078125 C 74.910156 88.078125 74.921875 88.078125 74.933594 88.085938 C 74.933594 88.089844 74.9375 88.089844 74.9375 88.089844 C 74.949219 88.09375 74.960938 88.097656 74.96875 88.101562 C 74.957031 88.097656 74.949219 88.09375 74.941406 88.089844 C 74.964844 88.101562 74.984375 88.113281 75.003906 88.125 C 75 88.121094 74.996094 88.121094 74.992188 88.113281 C 75 88.121094 75.007812 88.128906 75.015625 88.132812 C 75.019531 88.136719 75.019531 88.136719 75.019531 88.136719 C 75.027344 88.144531 75.03125 88.148438 75.03125 88.148438 C 75.035156 88.15625 75.042969 88.160156 75.046875 88.167969 C 75.046875 88.167969 75.0625 88.175781 75.070312 88.191406 C 75.070312 88.191406 75.074219 88.191406 75.074219 88.195312 C 75.078125 88.199219 75.082031 88.203125 75.085938 88.207031 C 75.082031 88.203125 75.078125 88.203125 75.074219 88.195312 C 75.078125 88.203125 75.082031 88.210938 75.089844 88.21875 C 75.089844 88.222656 75.09375 88.230469 75.097656 88.234375 C 75.101562 88.246094 75.101562 88.257812 75.105469 88.265625 C 75.101562 88.246094 75.113281 88.265625 75.113281 88.292969 C 75.113281 88.292969 75.113281 88.296875 75.113281 88.296875 C 75.113281 88.300781 75.117188 88.304688 75.117188 88.3125 C 75.113281 88.304688 75.113281 88.304688 75.113281 88.296875 C 75.113281 88.3125 75.113281 88.328125 75.113281 88.34375 C 75.117188 88.335938 75.117188 88.335938 75.117188 88.324219 C 75.117188 88.332031 75.117188 88.347656 75.113281 88.355469 Z M 75.113281 88.355469 " fill-opacity="1" fill-rule="nonzero"/><path fill="#fbb03b" d="M 78.109375 87.507812 C 78.109375 87.507812 78.105469 87.503906 78.105469 87.503906 C 78.101562 87.5 78.097656 87.5 78.089844 87.496094 C 78.113281 87.519531 78.117188 87.515625 78.109375 87.507812 Z M 78.109375 87.507812 " fill-opacity="1" fill-rule="nonzero"/><path fill="#fbb03b" d="M 77.53125 87.964844 C 77.535156 87.964844 77.535156 87.964844 77.535156 87.964844 C 77.527344 87.949219 77.519531 87.941406 77.519531 87.9375 C 77.523438 87.945312 77.527344 87.957031 77.53125 87.964844 Z M 77.53125 87.964844 " fill-opacity="1" fill-rule="nonzero"/><path fill="#fbb03b" d="M 78.164062 87.597656 C 78.160156 87.59375 78.15625 87.589844 78.15625 87.585938 C 78.15625 87.589844 78.160156 87.59375 78.164062 87.597656 Z M 78.164062 87.597656 " fill-opacity="1" fill-rule="nonzero"/><path fill="#fbb03b" d="M 78.042969 87.472656 C 78.035156 87.46875 78.023438 87.46875 78.011719 87.464844 C 78.011719 87.464844 78.007812 87.464844 78.007812 87.464844 C 78.035156 87.476562 78.042969 87.476562 78.042969 87.472656 Z M 78.042969 87.472656 " fill-opacity="1" fill-rule="nonzero"/><path fill="#fbb03b" d="M 78.023438 88.054688 C 78.023438 88.054688 78.027344 88.050781 78.027344 88.050781 C 78.035156 88.042969 78.042969 88.039062 78.046875 88.03125 C 78.050781 88.027344 78.039062 88.03125 78.023438 88.054688 Z M 78.023438 88.054688 " fill-opacity="1" fill-rule="nonzero"/><path fill="#fbb03b" d="M 77.675781 88.078125 C 77.679688 88.078125 77.679688 88.078125 77.679688 88.078125 C 77.683594 88.082031 77.691406 88.085938 77.695312 88.085938 C 77.664062 88.066406 77.664062 88.070312 77.675781 88.078125 Z M 77.675781 88.078125 " fill-opacity="1" fill-rule="nonzero"/><path fill="#fbb03b" d="M 78.078125 88 C 78.082031 87.996094 78.089844 87.988281 78.097656 87.980469 C 78.097656 87.980469 78.097656 87.976562 78.097656 87.976562 C 78.085938 87.992188 78.078125 88 78.078125 88 Z M 78.078125 88 " fill-opacity="1" fill-rule="nonzero"/><path fill="#fbb03b" d="M 78.171875 86.847656 C 78.050781 86.820312 77.910156 86.808594 77.785156 86.839844 C 77.726562 86.855469 77.667969 86.878906 77.613281 86.90625 C 77.59375 86.914062 77.570312 86.921875 77.550781 86.933594 C 77.480469 86.980469 77.449219 87.039062 77.417969 87.113281 C 77.414062 87.117188 77.417969 87.125 77.417969 87.128906 C 77.125 87.21875 76.949219 87.550781 76.949219 87.851562 C 76.949219 88.234375 77.21875 88.53125 77.566406 88.648438 C 77.90625 88.765625 78.308594 88.660156 78.535156 88.382812 C 78.796875 88.070312 78.867188 87.65625 78.699219 87.28125 C 78.605469 87.066406 78.402344 86.898438 78.171875 86.847656 Z M 78.164062 87.863281 C 78.144531 87.890625 78.132812 87.921875 78.117188 87.949219 C 78.113281 87.957031 78.105469 87.96875 78.097656 87.976562 C 78.101562 87.972656 78.105469 87.972656 78.109375 87.96875 C 78.105469 87.972656 78.101562 87.976562 78.097656 87.980469 C 78.09375 87.984375 78.09375 87.988281 78.089844 87.988281 C 78.085938 88 78.078125 88.003906 78.078125 88 C 78.070312 88.011719 78.0625 88.019531 78.054688 88.027344 C 78.054688 88.03125 78.050781 88.03125 78.046875 88.03125 C 78.046875 88.035156 78.042969 88.039062 78.035156 88.046875 C 78.035156 88.046875 78.03125 88.046875 78.03125 88.050781 C 78.027344 88.054688 78.023438 88.054688 78.019531 88.058594 C 78.023438 88.054688 78.023438 88.054688 78.023438 88.054688 C 78.003906 88.066406 77.980469 88.078125 77.960938 88.089844 C 77.953125 88.09375 77.941406 88.097656 77.933594 88.097656 C 77.921875 88.101562 77.890625 88.109375 77.878906 88.109375 C 77.863281 88.113281 77.847656 88.113281 77.832031 88.113281 C 77.824219 88.113281 77.8125 88.113281 77.800781 88.109375 C 77.796875 88.109375 77.796875 88.109375 77.792969 88.109375 C 77.769531 88.105469 77.75 88.101562 77.726562 88.09375 C 77.714844 88.09375 77.707031 88.089844 77.695312 88.085938 C 77.699219 88.089844 77.699219 88.089844 77.707031 88.089844 C 77.695312 88.085938 77.6875 88.082031 77.679688 88.078125 C 77.679688 88.078125 77.675781 88.078125 77.675781 88.078125 C 77.664062 88.070312 77.648438 88.0625 77.636719 88.054688 C 77.628906 88.050781 77.617188 88.046875 77.609375 88.039062 C 77.605469 88.035156 77.605469 88.039062 77.601562 88.035156 C 77.585938 88.019531 77.566406 88.003906 77.550781 87.984375 C 77.542969 87.980469 77.539062 87.972656 77.53125 87.964844 C 77.535156 87.96875 77.535156 87.96875 77.535156 87.972656 C 77.535156 87.96875 77.53125 87.964844 77.53125 87.964844 C 77.527344 87.960938 77.527344 87.957031 77.523438 87.957031 C 77.511719 87.941406 77.511719 87.933594 77.515625 87.9375 C 77.507812 87.925781 77.5 87.914062 77.496094 87.90625 C 77.492188 87.894531 77.484375 87.878906 77.484375 87.871094 C 77.480469 87.859375 77.476562 87.84375 77.476562 87.832031 C 77.476562 87.804688 77.476562 87.773438 77.476562 87.746094 C 77.476562 87.730469 77.480469 87.714844 77.484375 87.703125 C 77.488281 87.691406 77.488281 87.683594 77.492188 87.671875 C 77.496094 87.667969 77.496094 87.660156 77.496094 87.65625 C 77.511719 87.640625 77.53125 87.589844 77.539062 87.578125 C 77.554688 87.550781 77.570312 87.523438 77.585938 87.5 C 77.589844 87.492188 77.597656 87.476562 77.601562 87.472656 C 77.574219 87.507812 77.582031 87.5 77.617188 87.453125 C 77.683594 87.46875 77.757812 87.460938 77.824219 87.460938 C 77.882812 87.464844 77.945312 87.460938 78.003906 87.464844 C 78 87.460938 77.996094 87.460938 77.988281 87.460938 C 77.996094 87.460938 78 87.460938 78.007812 87.464844 C 78.011719 87.464844 78.011719 87.464844 78.015625 87.464844 C 78.03125 87.464844 78.039062 87.46875 78.039062 87.46875 C 78.046875 87.472656 78.054688 87.476562 78.066406 87.476562 C 78.074219 87.480469 78.078125 87.484375 78.089844 87.488281 C 78.089844 87.488281 78.089844 87.492188 78.089844 87.492188 C 78.085938 87.488281 78.085938 87.488281 78.082031 87.480469 C 78.085938 87.488281 78.09375 87.492188 78.101562 87.5 C 78.105469 87.5 78.105469 87.503906 78.105469 87.503906 C 78.109375 87.507812 78.117188 87.515625 78.121094 87.519531 C 78.128906 87.53125 78.140625 87.5625 78.152344 87.582031 C 78.144531 87.566406 78.148438 87.554688 78.15625 87.578125 C 78.15625 87.585938 78.15625 87.589844 78.160156 87.59375 C 78.160156 87.59375 78.164062 87.601562 78.164062 87.601562 C 78.164062 87.597656 78.160156 87.597656 78.160156 87.59375 C 78.164062 87.605469 78.164062 87.617188 78.167969 87.625 C 78.171875 87.636719 78.175781 87.644531 78.175781 87.65625 C 78.175781 87.648438 78.175781 87.648438 78.175781 87.640625 C 78.175781 87.648438 78.175781 87.652344 78.175781 87.660156 C 78.175781 87.660156 78.179688 87.664062 78.179688 87.667969 C 78.183594 87.683594 78.179688 87.695312 78.179688 87.691406 C 78.179688 87.707031 78.179688 87.726562 78.179688 87.742188 C 78.179688 87.75 78.179688 87.761719 78.175781 87.769531 C 78.171875 87.792969 78.167969 87.816406 78.160156 87.835938 C 78.15625 87.871094 78.117188 87.941406 78.164062 87.863281 Z M 78.164062 87.863281 " fill-opacity="1" fill-rule="nonzero"/><path fill="#fbb03b" d="M 86.347656 85.421875 C 85.871094 84.941406 85.21875 84.675781 84.542969 84.675781 C 84.285156 84.675781 84.03125 84.714844 83.785156 84.792969 C 83.652344 84.71875 83.480469 84.722656 83.339844 84.753906 C 83.152344 84.796875 82.984375 84.902344 82.835938 85.019531 C 82.824219 85.027344 82.8125 85.039062 82.796875 85.050781 C 82.75 85.0625 82.703125 85.078125 82.652344 85.101562 C 82.453125 85.191406 82.277344 85.316406 82.109375 85.457031 C 81.792969 85.71875 81.542969 86.054688 81.386719 86.433594 C 81.214844 86.84375 81.148438 87.300781 81.195312 87.746094 C 81.203125 87.804688 81.210938 87.863281 81.21875 87.921875 C 81.25 88.257812 81.339844 88.585938 81.496094 88.890625 C 81.789062 89.480469 82.332031 89.953125 82.933594 90.203125 C 83.65625 90.503906 84.519531 90.433594 85.25 90.199219 C 85.644531 90.074219 86.027344 89.875 86.3125 89.570312 C 86.53125 89.335938 86.773438 88.980469 86.753906 88.644531 C 87.382812 87.628906 87.183594 86.265625 86.347656 85.421875 Z M 85.59375 85.75 C 86.339844 86.285156 86.605469 87.347656 86.164062 88.160156 C 85.785156 88.859375 84.941406 89.296875 84.148438 89.199219 C 83.308594 89.089844 82.675781 88.363281 82.507812 87.5625 C 82.410156 87.09375 82.507812 86.617188 82.769531 86.21875 C 82.890625 86.035156 83.050781 85.863281 83.230469 85.730469 C 83.265625 85.726562 83.304688 85.722656 83.34375 85.71875 C 83.480469 85.699219 83.582031 85.648438 83.703125 85.59375 C 83.910156 85.496094 84.144531 85.4375 84.371094 85.425781 C 84.808594 85.398438 85.234375 85.492188 85.59375 85.75 Z M 85.59375 85.75 " fill-opacity="1" fill-rule="nonzero"/><path fill="#fbb03b" d="M 83.675781 86.601562 C 83.726562 86.460938 83.527344 86.398438 83.453125 86.507812 C 83.175781 86.910156 83.230469 87.535156 83.496094 87.929688 C 83.625 88.117188 83.796875 88.285156 84.003906 88.390625 C 84.054688 88.417969 84.109375 88.441406 84.164062 88.460938 C 84.222656 88.480469 84.273438 88.476562 84.332031 88.484375 C 84.429688 88.5 84.574219 88.519531 84.660156 88.457031 C 84.683594 88.441406 84.695312 88.40625 84.671875 88.386719 C 84.601562 88.328125 84.5 88.316406 84.417969 88.28125 C 84.414062 88.28125 84.378906 88.269531 84.371094 88.265625 C 84.359375 88.253906 84.328125 88.226562 84.324219 88.226562 C 84.289062 88.203125 84.238281 88.1875 84.199219 88.167969 C 84.027344 88.074219 83.871094 87.957031 83.757812 87.792969 C 83.644531 87.625 83.578125 87.425781 83.566406 87.222656 C 83.550781 87 83.605469 86.808594 83.675781 86.601562 Z M 83.675781 86.601562 " fill-opacity="1" fill-rule="nonzero"/><path fill="#fbb03b" d="M 85.542969 86.539062 C 85.546875 86.550781 85.550781 86.5625 85.554688 86.574219 C 85.558594 86.601562 85.570312 86.628906 85.578125 86.652344 C 85.59375 86.703125 85.609375 86.75 85.621094 86.800781 C 85.625 86.8125 85.625 86.824219 85.628906 86.835938 C 85.636719 86.851562 85.640625 86.863281 85.648438 86.878906 C 85.652344 86.890625 85.65625 86.890625 85.652344 86.882812 C 85.648438 86.875 85.648438 86.878906 85.65625 86.890625 C 85.65625 86.898438 85.660156 86.90625 85.664062 86.914062 C 85.667969 86.925781 85.671875 86.933594 85.675781 86.945312 C 85.691406 87 85.703125 87.054688 85.722656 87.105469 C 85.734375 87.144531 85.765625 87.171875 85.804688 87.171875 C 85.84375 87.171875 85.886719 87.144531 85.890625 87.105469 C 85.902344 87.042969 85.902344 86.980469 85.894531 86.917969 C 85.890625 86.882812 85.882812 86.847656 85.882812 86.8125 C 85.882812 86.828125 85.886719 86.828125 85.882812 86.8125 C 85.882812 86.796875 85.878906 86.78125 85.875 86.765625 C 85.875 86.753906 85.867188 86.738281 85.863281 86.726562 C 85.835938 86.667969 85.808594 86.609375 85.777344 86.554688 C 85.757812 86.527344 85.738281 86.5 85.714844 86.476562 C 85.703125 86.460938 85.691406 86.445312 85.675781 86.433594 C 85.667969 86.429688 85.65625 86.429688 85.648438 86.425781 C 85.625 86.402344 85.597656 86.378906 85.566406 86.363281 C 85.546875 86.355469 85.507812 86.367188 85.511719 86.394531 C 85.515625 86.429688 85.527344 86.460938 85.539062 86.492188 C 85.539062 86.507812 85.539062 86.527344 85.542969 86.539062 Z M 85.550781 86.476562 C 85.554688 86.46875 85.554688 86.46875 85.550781 86.476562 Z M 85.550781 86.476562 " fill-opacity="1" fill-rule="nonzero"/><path fill="#fbb03b" d="M 98.007812 62.835938 C 98.238281 63.070312 98.488281 63.285156 98.75 63.480469 C 99 63.667969 99.296875 63.824219 99.621094 63.769531 C 99.761719 63.746094 99.878906 63.6875 99.972656 63.578125 C 100.0625 63.472656 100.070312 63.367188 100.058594 63.234375 C 100.054688 63.179688 99.988281 63.15625 99.960938 63.207031 C 99.917969 63.28125 99.804688 63.335938 99.726562 63.371094 C 99.640625 63.40625 99.554688 63.4375 99.460938 63.433594 C 99.207031 63.425781 98.972656 63.25 98.777344 63.105469 C 98.566406 62.953125 98.367188 62.785156 98.179688 62.605469 C 98.085938 62.519531 97.996094 62.433594 97.910156 62.339844 C 97.832031 62.257812 97.75 62.136719 97.644531 62.089844 C 97.601562 62.070312 97.554688 62.078125 97.527344 62.121094 C 97.460938 62.242188 97.597656 62.375 97.667969 62.464844 C 97.777344 62.589844 97.890625 62.714844 98.007812 62.835938 Z M 98.007812 62.835938 " fill-opacity="1" fill-rule="nonzero"/><path fill="#fbb03b" d="M 86.476562 51.324219 C 86.488281 51.324219 86.492188 51.3125 86.492188 51.304688 C 86.496094 51.265625 86.671875 51.367188 86.695312 51.378906 C 86.785156 51.425781 86.871094 51.46875 86.960938 51.515625 C 87.140625 51.605469 87.316406 51.699219 87.488281 51.800781 C 87.828125 51.992188 88.15625 52.203125 88.460938 52.449219 C 89.082031 52.945312 89.585938 53.558594 90.195312 54.0625 C 90.25 54.105469 90.34375 54.066406 90.320312 53.988281 C 90.011719 53.019531 89.136719 52.289062 88.316406 51.75 C 87.894531 51.472656 87.4375 51.222656 86.957031 51.0625 C 86.78125 51.003906 86.464844 50.890625 86.355469 51.113281 C 86.304688 51.210938 86.351562 51.351562 86.476562 51.324219 Z M 86.476562 51.324219 " fill-opacity="1" fill-rule="nonzero"/><path fill="#fbb03b" d="M 94.527344 57.871094 C 94.519531 57.898438 94.523438 57.925781 94.53125 57.957031 C 94.53125 57.960938 94.53125 57.960938 94.53125 57.964844 C 94.535156 57.972656 94.535156 57.980469 94.535156 57.984375 C 94.542969 58.003906 94.550781 58.023438 94.558594 58.039062 C 94.574219 58.070312 94.59375 58.089844 94.621094 58.105469 C 94.628906 58.117188 94.644531 58.121094 94.65625 58.128906 C 94.671875 58.136719 94.6875 58.148438 94.699219 58.15625 C 94.707031 58.160156 94.714844 58.167969 94.722656 58.171875 C 94.746094 58.1875 94.769531 58.195312 94.792969 58.203125 C 94.824219 58.210938 94.851562 58.210938 94.878906 58.207031 C 94.90625 58.203125 94.933594 58.195312 94.957031 58.179688 C 94.980469 58.167969 95 58.148438 95.015625 58.125 C 95.035156 58.105469 95.046875 58.082031 95.050781 58.054688 C 95.054688 58.035156 95.058594 58.015625 95.058594 58 C 95.058594 57.960938 95.050781 57.925781 95.03125 57.890625 C 95.011719 57.851562 94.976562 57.816406 94.945312 57.78125 C 94.9375 57.773438 94.933594 57.765625 94.929688 57.753906 C 94.910156 57.742188 94.898438 57.730469 94.878906 57.71875 C 94.84375 57.699219 94.804688 57.6875 94.761719 57.6875 C 94.742188 57.683594 94.71875 57.6875 94.699219 57.691406 C 94.695312 57.6875 94.695312 57.6875 94.691406 57.6875 C 94.671875 57.683594 94.65625 57.679688 94.636719 57.6875 C 94.625 57.6875 94.613281 57.6875 94.601562 57.695312 C 94.582031 57.699219 94.566406 57.710938 94.554688 57.722656 C 94.539062 57.742188 94.527344 57.765625 94.519531 57.785156 C 94.511719 57.804688 94.511719 57.824219 94.515625 57.84375 C 94.515625 57.851562 94.523438 57.859375 94.523438 57.867188 C 94.527344 57.867188 94.527344 57.867188 94.527344 57.871094 Z M 94.96875 57.8125 C 94.96875 57.8125 94.972656 57.8125 94.972656 57.816406 C 94.96875 57.808594 94.960938 57.800781 94.957031 57.796875 C 94.960938 57.800781 94.964844 57.804688 94.96875 57.8125 Z M 94.96875 57.8125 " fill-opacity="1" fill-rule="nonzero"/><path fill="#fbb03b" d="M 95.765625 59.300781 C 95.78125 59.324219 95.792969 59.347656 95.816406 59.363281 C 95.828125 59.375 95.839844 59.382812 95.851562 59.394531 C 95.875 59.414062 95.898438 59.433594 95.921875 59.453125 C 95.941406 59.476562 95.964844 59.488281 95.992188 59.5 C 96.015625 59.511719 96.042969 59.519531 96.074219 59.515625 C 96.089844 59.515625 96.113281 59.511719 96.128906 59.507812 C 96.15625 59.5 96.183594 59.488281 96.203125 59.46875 C 96.21875 59.460938 96.234375 59.449219 96.242188 59.429688 C 96.261719 59.410156 96.273438 59.386719 96.28125 59.359375 C 96.28125 59.339844 96.285156 59.320312 96.289062 59.300781 C 96.289062 59.261719 96.277344 59.226562 96.257812 59.191406 C 96.246094 59.164062 96.230469 59.136719 96.21875 59.109375 C 96.210938 59.09375 96.203125 59.082031 96.195312 59.070312 C 96.183594 59.042969 96.164062 59.023438 96.144531 59.003906 C 96.140625 59 96.140625 59 96.136719 58.996094 C 96.121094 58.984375 96.101562 58.96875 96.085938 58.957031 C 96.066406 58.949219 96.046875 58.941406 96.027344 58.933594 C 95.984375 58.921875 95.941406 58.921875 95.898438 58.933594 C 95.859375 58.945312 95.824219 58.964844 95.796875 58.992188 C 95.765625 59.023438 95.746094 59.058594 95.734375 59.097656 C 95.722656 59.140625 95.722656 59.183594 95.734375 59.222656 C 95.738281 59.25 95.753906 59.277344 95.765625 59.300781 Z M 95.792969 59.265625 C 95.789062 59.265625 95.789062 59.261719 95.789062 59.257812 C 95.789062 59.257812 95.789062 59.257812 95.789062 59.253906 C 95.789062 59.257812 95.789062 59.261719 95.792969 59.265625 Z M 95.792969 59.265625 " fill-opacity="1" fill-rule="nonzero"/><path fill="#fbb03b" d="M 96.703125 60.265625 C 96.714844 60.292969 96.726562 60.3125 96.753906 60.335938 C 96.777344 60.359375 96.8125 60.378906 96.839844 60.398438 C 96.824219 60.386719 96.808594 60.375 96.792969 60.363281 C 96.847656 60.410156 96.90625 60.453125 96.964844 60.496094 C 96.976562 60.5 96.984375 60.5 96.992188 60.503906 C 97 60.507812 97.007812 60.515625 97.015625 60.519531 C 97.023438 60.519531 97.03125 60.519531 97.035156 60.519531 C 97.039062 60.519531 97.042969 60.519531 97.042969 60.519531 C 97.054688 60.523438 97.0625 60.519531 97.074219 60.519531 C 97.082031 60.519531 97.089844 60.523438 97.101562 60.519531 C 97.105469 60.519531 97.105469 60.519531 97.109375 60.519531 C 97.117188 60.519531 97.121094 60.519531 97.128906 60.519531 C 97.136719 60.515625 97.144531 60.507812 97.152344 60.503906 C 97.160156 60.5 97.171875 60.5 97.179688 60.496094 C 97.191406 60.484375 97.207031 60.472656 97.222656 60.464844 C 97.226562 60.460938 97.226562 60.449219 97.230469 60.445312 C 97.238281 60.4375 97.25 60.429688 97.253906 60.421875 C 97.261719 60.40625 97.269531 60.386719 97.273438 60.371094 C 97.277344 60.351562 97.28125 60.332031 97.28125 60.3125 C 97.28125 60.304688 97.277344 60.296875 97.273438 60.285156 C 97.273438 60.277344 97.277344 60.269531 97.273438 60.257812 C 97.269531 60.242188 97.261719 60.222656 97.253906 60.207031 C 97.230469 60.171875 97.207031 60.132812 97.183594 60.097656 C 97.175781 60.089844 97.171875 60.082031 97.164062 60.074219 C 97.160156 60.0625 97.152344 60.054688 97.148438 60.042969 C 97.136719 60.019531 97.121094 60 97.101562 59.980469 C 97.09375 59.972656 97.085938 59.964844 97.074219 59.960938 C 97.066406 59.953125 97.058594 59.945312 97.050781 59.941406 C 97.046875 59.941406 97.042969 59.9375 97.042969 59.9375 C 97.03125 59.933594 97.023438 59.925781 97.011719 59.921875 C 96.992188 59.914062 96.976562 59.90625 96.957031 59.898438 C 96.925781 59.890625 96.894531 59.886719 96.863281 59.894531 C 96.84375 59.894531 96.824219 59.898438 96.804688 59.910156 C 96.777344 59.917969 96.75 59.9375 96.730469 59.957031 C 96.71875 59.972656 96.707031 59.988281 96.695312 60.003906 C 96.6875 60.023438 96.679688 60.042969 96.671875 60.0625 C 96.660156 60.09375 96.660156 60.121094 96.667969 60.15625 C 96.667969 60.1875 96.675781 60.214844 96.695312 60.242188 C 96.699219 60.25 96.703125 60.257812 96.703125 60.265625 Z M 96.703125 60.265625 " fill-opacity="1" fill-rule="nonzero"/><path fill="#fbb03b" d="M 84.050781 43.308594 C 84.179688 43.359375 84.304688 43.429688 84.417969 43.511719 C 84.464844 43.542969 84.511719 43.578125 84.5625 43.625 C 84.617188 43.671875 84.667969 43.726562 84.71875 43.78125 C 84.757812 43.816406 84.773438 43.824219 84.804688 43.855469 C 84.828125 43.882812 84.851562 43.90625 84.878906 43.929688 C 84.921875 43.976562 84.960938 44.03125 85.011719 44.066406 C 85.03125 44.089844 85.046875 44.113281 85.070312 44.136719 C 85.113281 44.179688 85.195312 44.148438 85.195312 44.085938 C 85.195312 44.0625 85.191406 44.042969 85.1875 44.023438 C 85.1875 44.007812 85.179688 43.960938 85.179688 44 C 85.179688 43.949219 85.175781 43.910156 85.15625 43.859375 C 85.128906 43.773438 85.09375 43.695312 85.046875 43.617188 C 85.007812 43.554688 84.941406 43.46875 84.875 43.402344 C 84.804688 43.335938 84.726562 43.273438 84.648438 43.222656 C 84.371094 43.039062 83.964844 42.875 83.644531 43.019531 C 83.597656 43.042969 83.601562 43.121094 83.644531 43.148438 C 83.777344 43.21875 83.917969 43.253906 84.050781 43.308594 Z M 84.050781 43.308594 " fill-opacity="1" fill-rule="nonzero"/><path fill="#fbb03b" d="M 79.945312 43.566406 C 79.964844 43.554688 79.984375 43.539062 80.003906 43.527344 C 80.019531 43.515625 80.042969 43.507812 80.0625 43.496094 C 80.09375 43.472656 80.128906 43.445312 80.160156 43.417969 C 80.183594 43.410156 80.207031 43.402344 80.222656 43.382812 C 80.222656 43.382812 80.222656 43.382812 80.226562 43.378906 C 80.226562 43.378906 80.226562 43.382812 80.226562 43.382812 C 80.253906 43.386719 80.285156 43.378906 80.296875 43.355469 C 80.296875 43.355469 80.296875 43.351562 80.300781 43.347656 C 80.324219 43.320312 80.328125 43.285156 80.320312 43.246094 C 80.320312 43.214844 80.3125 43.183594 80.289062 43.164062 C 80.269531 43.144531 80.253906 43.136719 80.230469 43.125 C 80.191406 43.109375 80.15625 43.105469 80.117188 43.121094 C 80.101562 43.128906 80.085938 43.144531 80.066406 43.152344 C 80.078125 43.148438 80.089844 43.144531 80.101562 43.140625 C 80.058594 43.148438 80.019531 43.171875 80 43.210938 C 79.992188 43.226562 79.988281 43.242188 79.984375 43.257812 C 79.964844 43.292969 79.941406 43.328125 79.921875 43.363281 C 79.914062 43.375 79.910156 43.394531 79.902344 43.410156 C 79.902344 43.410156 79.902344 43.414062 79.902344 43.417969 C 79.898438 43.421875 79.898438 43.421875 79.898438 43.425781 C 79.886719 43.445312 79.875 43.464844 79.863281 43.488281 C 79.851562 43.511719 79.855469 43.542969 79.875 43.558594 C 79.894531 43.574219 79.925781 43.582031 79.945312 43.566406 Z M 80.253906 43.347656 C 80.25 43.347656 80.25 43.347656 80.25 43.347656 C 80.257812 43.347656 80.265625 43.34375 80.273438 43.34375 C 80.265625 43.34375 80.257812 43.347656 80.253906 43.347656 Z M 80.183594 43.328125 C 80.183594 43.328125 80.183594 43.328125 80.183594 43.324219 C 80.183594 43.332031 80.183594 43.332031 80.183594 43.320312 C 80.183594 43.324219 80.183594 43.324219 80.183594 43.328125 Z M 80.183594 43.339844 C 80.183594 43.339844 80.183594 43.339844 80.179688 43.339844 C 80.179688 43.335938 80.179688 43.339844 80.179688 43.335938 C 80.171875 43.328125 80.179688 43.332031 80.183594 43.339844 Z M 79.984375 43.265625 C 79.984375 43.273438 79.980469 43.277344 79.980469 43.285156 C 79.984375 43.277344 79.984375 43.273438 79.984375 43.269531 C 79.984375 43.265625 79.984375 43.265625 79.984375 43.265625 Z M 79.984375 43.265625 " fill-opacity="1" fill-rule="nonzero"/><path fill="#fbb03b" d="M 80.402344 46.890625 C 80.359375 46.84375 80.292969 46.816406 80.246094 46.777344 C 80.1875 46.734375 80.136719 46.683594 80.089844 46.625 C 80.007812 46.53125 79.957031 46.40625 79.957031 46.285156 C 79.957031 46.167969 79.996094 46.074219 80.078125 46.015625 C 80.121094 45.980469 80.175781 45.953125 80.214844 45.941406 C 80.25 45.929688 80.285156 45.925781 80.316406 45.910156 C 80.339844 45.890625 80.347656 45.890625 80.378906 45.890625 C 80.425781 45.894531 80.449219 45.832031 80.417969 45.800781 C 80.390625 45.777344 80.363281 45.753906 80.339844 45.730469 C 80.296875 45.695312 80.25 45.6875 80.195312 45.6875 C 80.109375 45.6875 80.019531 45.707031 79.945312 45.753906 C 79.78125 45.863281 79.683594 46.035156 79.671875 46.230469 C 79.65625 46.425781 79.742188 46.621094 79.867188 46.769531 C 79.925781 46.84375 80 46.902344 80.078125 46.953125 C 80.164062 47.003906 80.269531 47.070312 80.367188 47.054688 C 80.351562 47.054688 80.335938 47.054688 80.320312 47.054688 C 80.390625 47.078125 80.464844 47.101562 80.542969 47.105469 C 80.609375 47.109375 80.621094 47.023438 80.574219 46.988281 C 80.519531 46.953125 80.460938 46.925781 80.402344 46.890625 Z M 80.402344 46.890625 " fill-opacity="1" fill-rule="nonzero"/><path fill="#fbb03b" d="M 84.707031 49.046875 C 84.710938 49.054688 84.710938 49.066406 84.710938 49.074219 C 84.714844 49.101562 84.722656 49.128906 84.726562 49.152344 C 84.726562 49.15625 84.726562 49.179688 84.726562 49.183594 C 84.726562 49.207031 84.730469 49.226562 84.734375 49.246094 C 84.738281 49.261719 84.738281 49.277344 84.742188 49.292969 C 84.742188 49.296875 84.742188 49.296875 84.742188 49.296875 C 84.742188 49.300781 84.746094 49.304688 84.746094 49.308594 C 84.75 49.339844 84.75 49.375 84.753906 49.40625 C 84.757812 49.414062 84.757812 49.417969 84.757812 49.425781 C 84.757812 49.425781 84.757812 49.425781 84.757812 49.433594 C 84.761719 49.449219 84.761719 49.460938 84.761719 49.476562 C 84.765625 49.507812 84.765625 49.542969 84.769531 49.574219 C 84.777344 49.617188 84.804688 49.671875 84.835938 49.703125 C 84.878906 49.730469 84.9375 49.753906 84.984375 49.71875 C 85.027344 49.691406 85.058594 49.648438 85.074219 49.597656 C 85.082031 49.558594 85.078125 49.511719 85.074219 49.46875 C 85.070312 49.398438 85.058594 49.332031 85.039062 49.261719 C 85.019531 49.195312 84.996094 49.132812 84.960938 49.070312 C 84.945312 49.046875 84.933594 49.015625 84.914062 48.992188 C 84.90625 48.980469 84.894531 48.96875 84.882812 48.960938 C 84.882812 48.960938 84.882812 48.957031 84.878906 48.953125 C 84.871094 48.9375 84.855469 48.925781 84.84375 48.910156 C 84.820312 48.878906 84.769531 48.878906 84.742188 48.894531 C 84.707031 48.914062 84.695312 48.953125 84.703125 48.992188 C 84.707031 48.992188 84.710938 49.015625 84.710938 49.027344 C 84.710938 49.03125 84.710938 49.035156 84.707031 49.046875 Z M 84.707031 49.046875 " fill-opacity="1" fill-rule="nonzero"/><path fill="#fbb03b" d="M 83.195312 60.949219 C 83.195312 60.953125 83.195312 60.957031 83.195312 60.960938 C 83.195312 61 83.234375 61.027344 83.269531 61.019531 C 83.289062 61.015625 83.308594 61.015625 83.328125 61.011719 C 83.359375 61.003906 83.382812 60.988281 83.410156 60.96875 C 83.433594 60.949219 83.453125 60.921875 83.472656 60.898438 C 83.480469 60.890625 83.484375 60.882812 83.488281 60.875 C 83.492188 60.871094 83.507812 60.851562 83.503906 60.851562 C 83.554688 60.800781 83.578125 60.722656 83.589844 60.644531 C 83.601562 60.5625 83.609375 60.480469 83.601562 60.398438 C 83.597656 60.316406 83.582031 60.234375 83.554688 60.160156 C 83.523438 60.078125 83.46875 59.976562 83.382812 59.953125 C 83.339844 59.929688 83.285156 59.921875 83.25 59.960938 C 83.234375 59.976562 83.230469 59.996094 83.222656 60.015625 C 83.203125 60.058594 83.203125 60.097656 83.214844 60.152344 C 83.21875 60.183594 83.226562 60.214844 83.230469 60.246094 C 83.234375 60.261719 83.238281 60.277344 83.238281 60.289062 C 83.238281 60.292969 83.238281 60.292969 83.238281 60.292969 C 83.238281 60.296875 83.238281 60.296875 83.238281 60.300781 C 83.242188 60.332031 83.246094 60.363281 83.25 60.398438 C 83.25 60.425781 83.25 60.457031 83.246094 60.488281 C 83.246094 60.503906 83.246094 60.519531 83.242188 60.535156 C 83.242188 60.539062 83.238281 60.542969 83.238281 60.546875 C 83.226562 60.617188 83.195312 60.6875 83.203125 60.753906 C 83.203125 60.757812 83.199219 60.765625 83.199219 60.765625 C 83.195312 60.792969 83.1875 60.816406 83.183594 60.839844 C 83.179688 60.871094 83.179688 60.890625 83.183594 60.921875 C 83.183594 60.925781 83.183594 60.925781 83.183594 60.925781 C 83.183594 60.925781 83.183594 60.925781 83.1875 60.929688 C 83.1875 60.9375 83.191406 60.941406 83.195312 60.949219 Z M 83.207031 60.738281 C 83.207031 60.742188 83.207031 60.742188 83.207031 60.742188 C 83.207031 60.726562 83.210938 60.722656 83.207031 60.738281 Z M 83.207031 60.738281 " fill-opacity="1" fill-rule="nonzero"/><path fill="#fbb03b" d="M 23.789062 71.398438 C 25.136719 72.324219 26.808594 72.9375 28.457031 72.816406 C 28.472656 72.816406 28.472656 72.796875 28.457031 72.796875 C 25.679688 72.667969 22.84375 71.082031 21.550781 68.5625 C 20.921875 67.335938 20.707031 65.941406 20.988281 64.585938 C 21.265625 63.238281 21.941406 62.046875 22.753906 60.960938 C 23.667969 59.742188 24.859375 58.71875 26.15625 57.933594 C 26.199219 57.90625 26.160156 57.84375 26.117188 57.867188 C 23.671875 59.105469 21.496094 61.472656 20.8125 64.171875 C 20.46875 65.527344 20.570312 66.929688 21.121094 68.214844 C 21.675781 69.515625 22.628906 70.605469 23.789062 71.398438 Z M 23.789062 71.398438 " fill-opacity="1" fill-rule="nonzero"/><path fill="#fbb03b" d="M 88.898438 70.140625 C 90.078125 69.308594 91.019531 68.101562 91.488281 66.730469 C 91.984375 65.292969 91.933594 63.664062 91.398438 62.246094 C 91.089844 61.433594 90.625 60.695312 90.046875 60.050781 C 90.003906 60 89.933594 60.070312 89.976562 60.121094 C 91.90625 62.378906 92.113281 65.789062 90.53125 68.296875 C 90.089844 68.992188 89.53125 69.597656 88.871094 70.09375 C 88.84375 70.113281 88.871094 70.164062 88.898438 70.140625 Z M 88.898438 70.140625 " fill-opacity="1" fill-rule="nonzero"/><path fill="#fbb03b" d="M 79.15625 73.042969 C 80.023438 72.742188 80.859375 72.324219 81.679688 71.914062 C 82.5 71.507812 83.277344 71 83.988281 70.425781 C 85.355469 69.316406 86.445312 67.824219 86.816406 66.078125 C 87.015625 65.152344 86.972656 64.207031 86.675781 63.304688 C 86.671875 63.285156 86.640625 63.292969 86.644531 63.3125 C 87.144531 64.964844 86.675781 66.765625 85.777344 68.191406 C 84.820312 69.714844 83.355469 70.761719 81.808594 71.625 C 80.933594 72.113281 80.007812 72.488281 79.117188 72.949219 C 79.0625 72.972656 79.097656 73.0625 79.15625 73.042969 Z M 79.15625 73.042969 " fill-opacity="1" fill-rule="nonzero"/><path fill="#fbb03b" d="M 109.398438 71.703125 C 109.601562 71.746094 109.839844 71.722656 110.042969 71.6875 C 110.144531 71.667969 110.257812 71.652344 110.355469 71.625 C 110.464844 71.59375 110.570312 71.542969 110.667969 71.488281 C 110.859375 71.4375 111.066406 71.261719 111.148438 71.09375 C 111.269531 70.84375 111.132812 70.628906 110.949219 70.460938 C 110.574219 70.113281 110.203125 69.734375 109.769531 69.464844 C 109.675781 69.40625 109.558594 69.519531 109.621094 69.613281 C 109.851562 69.960938 110.15625 70.261719 110.449219 70.558594 C 110.527344 70.632812 110.601562 70.710938 110.679688 70.789062 C 110.703125 70.816406 110.757812 70.859375 110.757812 70.894531 C 110.753906 70.914062 110.679688 70.972656 110.660156 70.984375 C 110.59375 71.039062 110.519531 71.074219 110.464844 71.132812 C 110.386719 71.183594 110.308594 71.226562 110.230469 71.273438 C 110.140625 71.324219 110.066406 71.378906 109.96875 71.421875 C 109.882812 71.457031 109.792969 71.492188 109.703125 71.523438 C 109.605469 71.5625 109.496094 71.574219 109.398438 71.605469 C 109.355469 71.625 109.347656 71.695312 109.398438 71.703125 Z M 109.398438 71.703125 " fill-opacity="1" fill-rule="nonzero"/><g fill="#ffffff" fill-opacity="1"><g transform="translate(116.50499, 91.489148)"><g><path d="M 6.796875 -12.851562 C 6.691406 -12.851562 6.585938 -12.824219 6.585938 -12.746094 L 6.585938 -2.203125 C 6.585938 -0.636719 7.59375 0.371094 9.425781 0.371094 C 11.234375 0.371094 12.242188 -0.636719 12.242188 -2.203125 C 12.242188 -14.128906 7.726562 -22.542969 7.726562 -33.511719 C 7.726562 -34.308594 8.125 -34.972656 9.425781 -34.972656 C 10.703125 -34.972656 11.074219 -34.308594 11.074219 -33.511719 L 11.074219 -23.5 C 11.074219 -22.941406 11.605469 -22.863281 11.816406 -22.863281 L 12.027344 -22.863281 C 12.136719 -22.863281 12.242188 -22.890625 12.242188 -22.96875 L 12.242188 -33.511719 C 12.242188 -35.078125 11.234375 -36.113281 9.425781 -36.113281 C 7.59375 -36.113281 6.558594 -35.078125 6.558594 -33.511719 C 6.558594 -21.773438 11.074219 -13.941406 11.074219 -2.175781 C 11.074219 -1.40625 10.703125 -0.742188 9.425781 -0.742188 C 8.125 -0.742188 7.753906 -1.40625 7.753906 -2.175781 L 7.753906 -12.214844 C 7.753906 -12.773438 7.222656 -12.851562 7.035156 -12.851562 Z M 6.796875 -12.851562 "/></g></g></g><g fill="#ffffff" fill-opacity="1"><g transform="translate(135.332212, 91.489148)"><g><path d="M 11.152344 -20.738281 C 11.152344 -20.179688 11.683594 -20.101562 11.898438 -20.101562 L 12.109375 -20.101562 C 12.214844 -20.101562 12.320312 -20.15625 12.320312 -20.207031 L 12.320312 -33.511719 C 12.320312 -35.078125 11.257812 -36.113281 9.480469 -36.113281 C 7.675781 -36.113281 6.636719 -35.078125 6.636719 -33.511719 L 6.636719 -2.203125 C 6.636719 -0.636719 7.675781 0.371094 9.507812 0.371094 C 11.3125 0.371094 12.320312 -0.636719 12.320312 -2.203125 L 12.320312 -15.453125 C 12.320312 -15.535156 12.214844 -15.535156 12.109375 -15.535156 L 11.898438 -15.535156 C 11.683594 -15.535156 11.152344 -15.480469 11.152344 -14.921875 L 11.152344 -2.175781 C 11.152344 -1.488281 10.859375 -0.742188 9.507812 -0.742188 C 8.207031 -0.742188 7.808594 -1.40625 7.808594 -2.175781 L 7.808594 -33.511719 C 7.808594 -34.308594 8.207031 -34.972656 9.480469 -34.972656 C 10.726562 -34.972656 11.152344 -34.308594 11.152344 -33.511719 Z M 11.152344 -20.738281 "/></g></g></g><g fill="#ffffff" fill-opacity="1"><g transform="translate(154.292215, 91.489148)"><g><path d="M 6.796875 -35.691406 C 6.613281 -35.691406 6.585938 -35.636719 6.585938 -35.476562 L 6.585938 -0.1875 C 6.585938 -0.078125 6.613281 0 6.769531 0 L 7.035156 0 C 7.433594 0 7.753906 -0.210938 7.753906 -0.664062 L 7.753906 -17.578125 L 11.101562 -17.578125 L 11.101562 -0.664062 C 11.101562 -0.210938 11.417969 0 11.84375 0 L 12.082031 0 C 12.242188 0 12.269531 -0.078125 12.269531 -0.1875 L 12.269531 -35.476562 C 12.269531 -35.636719 12.242188 -35.691406 12.054688 -35.691406 L 11.84375 -35.691406 C 11.390625 -35.691406 11.101562 -35.449219 11.101562 -35.050781 L 11.101562 -18.667969 L 7.753906 -18.667969 L 7.753906 -35.050781 C 7.753906 -35.449219 7.460938 -35.691406 7.035156 -35.691406 Z M 6.796875 -35.691406 "/></g></g></g><g fill="#ffffff" fill-opacity="1"><g transform="translate(173.145991, 91.489148)"><g><path d="M 10.753906 -34.519531 C 11.179688 -34.519531 11.445312 -34.679688 11.445312 -35.183594 L 11.445312 -35.503906 C 11.445312 -35.636719 11.445312 -35.691406 11.3125 -35.691406 L 6.851562 -35.691406 C 6.664062 -35.691406 6.636719 -35.636719 6.636719 -35.476562 L 6.636719 -0.238281 C 6.636719 0 6.636719 0 7.144531 0 L 11.3125 0 C 11.445312 0 11.445312 -0.0546875 11.445312 -0.1875 L 11.445312 -0.503906 C 11.445312 -1.007812 11.179688 -1.167969 10.753906 -1.167969 L 7.808594 -1.167969 L 7.808594 -17.074219 L 10.621094 -17.074219 C 11.046875 -17.074219 11.339844 -17.234375 11.339844 -17.738281 L 11.339844 -17.949219 C 11.339844 -18.136719 11.339844 -18.242188 11.179688 -18.242188 L 7.808594 -18.242188 L 7.808594 -34.519531 Z M 10.753906 -34.519531 "/></g></g></g><g fill="#ffffff" fill-opacity="1"><g transform="translate(190.857926, 91.489148)"><g><path d="M 7.382812 -35.691406 C 6.957031 -35.691406 6.636719 -35.449219 6.636719 -35.050781 L 6.636719 -0.425781 C 6.636719 -0.160156 6.796875 0 7.035156 0 L 7.410156 0 C 7.648438 0 7.808594 -0.160156 7.808594 -0.425781 L 7.808594 -35.476562 C 7.808594 -35.636719 7.78125 -35.691406 7.621094 -35.691406 Z M 7.382812 -35.691406 "/></g></g></g><g fill="#ffffff" fill-opacity="1"><g transform="translate(205.303639, 91.489148)"><g><path d="M 6.796875 -35.691406 C 6.613281 -35.691406 6.585938 -35.636719 6.585938 -35.476562 L 6.585938 -0.210938 C 6.585938 -0.0546875 6.613281 0 6.769531 0 L 9.242188 0 C 12.160156 0 12.242188 -1.859375 12.242188 -2.601562 L 12.242188 -14.65625 C 12.242188 -15.03125 12.269531 -15.402344 12.269531 -15.800781 C 12.269531 -16.703125 12.160156 -17.605469 11.472656 -18.191406 C 12.160156 -18.773438 12.269531 -19.785156 12.269531 -20.820312 C 12.269531 -21.296875 12.242188 -21.75 12.242188 -22.199219 L 12.242188 -33.0625 C 12.242188 -33.855469 12.109375 -35.691406 9.398438 -35.691406 Z M 7.753906 -1.167969 L 7.753906 -17.578125 L 9.585938 -17.578125 C 10.914062 -17.578125 11.101562 -16.675781 11.101562 -15.71875 C 11.101562 -15.375 11.074219 -15.003906 11.074219 -14.683594 L 11.074219 -2.628906 C 11.074219 -1.832031 10.703125 -1.167969 9.398438 -1.167969 Z M 9.398438 -34.519531 C 10.703125 -34.519531 11.074219 -33.855469 11.074219 -33.0625 L 11.074219 -21.667969 C 11.074219 -21.351562 11.101562 -20.976562 11.101562 -20.632812 C 11.101562 -19.675781 10.914062 -18.773438 9.585938 -18.773438 L 7.753906 -18.773438 L 7.753906 -34.519531 Z M 9.398438 -34.519531 "/></g></g></g><g fill="#ffffff" fill-opacity="1"><g transform="translate(224.157414, 91.489148)"><g><path d="M 10.753906 -34.519531 C 11.179688 -34.519531 11.445312 -34.679688 11.445312 -35.183594 L 11.445312 -35.503906 C 11.445312 -35.636719 11.445312 -35.691406 11.3125 -35.691406 L 6.851562 -35.691406 C 6.664062 -35.691406 6.636719 -35.636719 6.636719 -35.476562 L 6.636719 -0.238281 C 6.636719 0 6.636719 0 7.144531 0 L 11.3125 0 C 11.445312 0 11.445312 -0.0546875 11.445312 -0.1875 L 11.445312 -0.503906 C 11.445312 -1.007812 11.179688 -1.167969 10.753906 -1.167969 L 7.808594 -1.167969 L 7.808594 -17.074219 L 10.621094 -17.074219 C 11.046875 -17.074219 11.339844 -17.234375 11.339844 -17.738281 L 11.339844 -17.949219 C 11.339844 -18.136719 11.339844 -18.242188 11.179688 -18.242188 L 7.808594 -18.242188 L 7.808594 -34.519531 Z M 10.753906 -34.519531 "/></g></g></g><g fill="#ffffff" fill-opacity="1"><g transform="translate(241.869349, 91.489148)"><g><path d="M 6.796875 -35.691406 C 6.613281 -35.691406 6.585938 -35.636719 6.585938 -35.476562 L 6.585938 -0.1875 C 6.585938 -0.078125 6.613281 0 6.769531 0 L 7.035156 0 C 7.433594 0 7.753906 -0.210938 7.753906 -0.664062 L 7.753906 -26.609375 L 11.101562 -0.585938 C 11.152344 -0.1875 11.472656 0 11.84375 0 L 12.082031 0 C 12.242188 0 12.269531 -0.078125 12.269531 -0.1875 L 12.269531 -35.476562 C 12.269531 -35.636719 12.242188 -35.691406 12.054688 -35.691406 L 11.84375 -35.691406 C 11.390625 -35.691406 11.101562 -35.449219 11.101562 -35.050781 L 11.101562 -9.1875 L 7.753906 -35.105469 C 7.699219 -35.449219 7.488281 -35.691406 7.035156 -35.691406 Z M 6.796875 -35.691406 "/></g></g></g><g fill="#ffffff" fill-opacity="1"><g transform="translate(260.723125, 91.489148)"><g><path d="M 5.761719 -35.449219 L 8.363281 -0.371094 C 8.390625 -0.132812 8.550781 0 8.789062 0 L 9.53125 0 C 9.796875 0 9.957031 -0.132812 9.984375 -0.371094 L 11.949219 -30.085938 L 13.96875 -0.371094 C 13.96875 -0.132812 14.128906 0 14.394531 0 L 15.003906 0 C 15.269531 0 15.535156 -0.0273438 15.585938 -0.371094 L 18.191406 -35.449219 C 18.191406 -35.609375 18.164062 -35.691406 17.976562 -35.691406 L 17.792969 -35.691406 C 17.367188 -35.691406 16.996094 -35.503906 16.96875 -35.132812 L 14.789062 -4.355469 L 12.824219 -35.132812 C 12.800781 -35.425781 12.558594 -35.664062 12.242188 -35.664062 L 11.65625 -35.664062 C 11.367188 -35.664062 11.125 -35.425781 11.101562 -35.132812 L 9.160156 -4.566406 L 6.984375 -35.132812 C 6.957031 -35.503906 6.585938 -35.691406 6.160156 -35.691406 L 5.976562 -35.691406 C 5.816406 -35.691406 5.761719 -35.636719 5.761719 -35.53125 Z M 5.761719 -35.449219 "/></g></g></g><g fill="#ffffff" fill-opacity="1"><g transform="translate(284.675388, 91.489148)"><g><path d="M 11.5 -0.558594 C 11.523438 -0.1875 11.65625 0 12.082031 0 L 12.535156 0 C 12.691406 0 12.71875 -0.078125 12.71875 -0.238281 L 10.117188 -35.316406 C 10.089844 -35.664062 9.851562 -35.691406 9.507812 -35.691406 L 9.082031 -35.691406 C 8.789062 -35.691406 8.523438 -35.664062 8.496094 -35.316406 L 5.894531 -0.238281 C 5.894531 -0.078125 5.921875 0 6.082031 0 L 6.558594 0 C 6.984375 0 7.089844 -0.1875 7.117188 -0.558594 L 7.542969 -6.613281 L 11.074219 -6.613281 Z M 10.992188 -7.808594 L 7.621094 -7.808594 L 9.320312 -31.519531 Z M 10.992188 -7.808594 "/></g></g></g><g fill="#ffffff" fill-opacity="1"><g transform="translate(303.316732, 91.489148)"><g><path d="M 6.1875 0 C 6.613281 0 6.984375 -0.1875 7.035156 -0.558594 L 9.109375 -15.90625 L 11.179688 -0.558594 C 11.234375 -0.1875 11.605469 0 12.027344 0 L 12.242188 0 C 12.402344 0 12.453125 -0.0546875 12.453125 -0.160156 L 12.453125 -0.238281 L 9.957031 -17.84375 L 12.453125 -35.449219 L 12.453125 -35.53125 C 12.453125 -35.636719 12.402344 -35.691406 12.242188 -35.691406 L 12.027344 -35.691406 C 11.605469 -35.691406 11.234375 -35.503906 11.179688 -35.132812 L 9.109375 -19.808594 L 7.035156 -35.132812 C 6.984375 -35.503906 6.613281 -35.691406 6.1875 -35.691406 L 5.976562 -35.691406 C 5.816406 -35.691406 5.761719 -35.636719 5.761719 -35.53125 L 5.761719 -35.449219 L 8.257812 -17.84375 L 5.761719 -0.238281 L 5.761719 -0.160156 C 5.761719 -0.0546875 5.816406 0 5.976562 0 Z M 6.1875 0 "/></g></g></g></svg>